<svg width="200" height="80" viewBox="0 0 200 80" fill="none" xmlns="http://www.w3.org/2000/svg">
<path fill-rule="evenodd" clip-rule="evenodd" d="M37.1063 48.5498C40.0854 47.2242 42.5457 44.9368 44.1017 42.0458C44.6416 41.0258 45.1756 40.7558 45.9113 41.0978C46.6471 41.4398 46.7835 42.1778 46.2495 43.1978C45.1166 45.3723 43.5375 47.277 41.6179 48.7847C39.6983 50.2923 37.4824 51.368 35.1186 51.9398C32.3851 52.7522 29.514 52.9787 26.6891 52.6046C23.8641 52.2306 21.1474 51.2644 18.7129 49.7678C16.0347 48.1339 13.8734 45.761 12.4829 42.9278C12.3778 42.8053 12.2982 42.6625 12.2492 42.508C12.2002 42.3536 12.1826 42.1906 12.1976 42.0291C12.2125 41.8676 12.2597 41.7108 12.3363 41.5683C12.4129 41.4257 12.5173 41.3004 12.6431 41.1998C12.6847 41.1607 12.7304 41.1265 12.7796 41.0978C13.45 40.7558 14.0493 41.0258 14.4528 41.8418C15.8576 44.616 18.0944 46.8696 20.843 48.2798C20.9795 48.3458 21.2465 48.5498 21.3829 48.4178C21.5194 48.2858 21.2465 48.1478 21.1812 48.0098C19.1734 45.6821 18.1534 42.6482 18.3422 39.5654C18.531 36.4826 19.9134 33.5991 22.1899 31.5398C22.2551 31.4678 22.4569 31.4018 22.4569 31.1978C22.2551 31.0598 22.1187 31.1978 21.9881 31.2638C18.7721 32.6042 16.137 35.0647 14.5596 38.1998C14.1561 39.0158 13.4797 39.2918 12.8864 38.9438C12.7412 38.87 12.6119 38.7679 12.5059 38.6434C12.3998 38.5189 12.3191 38.3745 12.2684 38.2184C12.2177 38.0623 12.198 37.8976 12.2103 37.7338C12.2227 37.57 12.267 37.4103 12.3405 37.2638C12.3725 37.1715 12.4142 37.083 12.4651 36.9998C13.6214 34.7085 15.2685 32.7068 17.2864 31.1406C19.3043 29.5743 21.6423 28.4829 24.1301 27.9458C29.9862 26.5238 35.5933 27.2678 40.6663 30.6578C43.0594 32.2502 45.0002 34.4466 46.297 37.0298C46.4173 37.196 46.4994 37.3873 46.5373 37.5897C46.5753 37.7921 46.5682 38.0005 46.5165 38.1998C46.4551 38.4321 46.3261 38.6403 46.1463 38.7976C45.9664 38.9549 45.744 39.0539 45.5079 39.0818C45.256 39.1117 45.0016 39.0544 44.786 38.9193C44.5705 38.7842 44.4067 38.5792 44.3212 38.3378C43.5734 36.8178 42.5695 35.4413 41.3545 34.2698C40.0443 33.0093 38.5236 31.9936 36.863 31.2698C36.6613 31.2038 36.5307 31.0658 36.329 31.2038C38.404 32.9356 39.8191 35.3429 40.3322 38.0136C40.8452 40.6843 40.4243 43.4523 39.1414 45.8438C38.5698 46.8004 37.9209 47.7075 37.2012 48.5558C37.13 48.5558 37.0647 48.6218 36.9995 48.6218C36.9342 48.6218 37.0647 48.6878 37.1063 48.5498ZM38.1149 40.2158C38.1439 37.8421 37.2485 35.5521 35.6223 33.8402C33.996 32.1283 31.7692 31.1318 29.4226 31.0658C27.0709 31.1176 24.8323 32.0964 23.1842 33.7936C21.536 35.4908 20.6088 37.7719 20.6003 40.1506C20.5918 42.5293 21.5027 44.8172 23.1386 46.5264C24.7745 48.2356 27.0061 49.2308 29.3573 49.2998C31.7005 49.2792 33.9402 48.3205 35.5861 46.6337C37.2319 44.9469 38.1497 42.6694 38.1387 40.2998V40.2398L38.1149 40.2158Z" fill="black"/>
<path fill-rule="evenodd" clip-rule="evenodd" d="M37.1068 48.5504C37.0706 48.5845 37.0229 48.6035 36.9733 48.6035C36.9238 48.6035 36.8761 48.5845 36.8398 48.5504C36.9051 48.5504 36.9763 48.4844 37.0416 48.4844C37.0406 48.4933 37.0417 48.5023 37.0446 48.5107C37.0476 48.5191 37.0524 48.5268 37.0586 48.5331C37.0649 48.5395 37.0725 48.5443 37.0808 48.5473C37.0891 48.5503 37.098 48.5513 37.1068 48.5504Z" fill="black"/>
<path fill-rule="evenodd" clip-rule="evenodd" d="M22.8663 40.2822C22.8537 38.5179 23.5339 36.8207 24.7575 35.563C25.9812 34.3053 27.6483 33.5901 29.393 33.5742C31.1692 33.5774 32.8718 34.2919 34.1284 35.5614C35.3849 36.8309 36.093 38.5521 36.0977 40.3482C36.1707 41.2747 36.0526 42.2064 35.7511 43.0844C35.4495 43.9624 34.971 44.7674 34.3457 45.4487C33.7205 46.1299 32.9622 46.6725 32.1189 47.042C31.2756 47.4115 30.3656 47.5999 29.4465 47.5954C28.5274 47.5908 27.6193 47.3933 26.7796 47.0154C25.9399 46.6374 25.187 46.0874 24.5684 45.3999C23.9499 44.7125 23.4792 43.9026 23.1862 43.0217C22.8932 42.1408 22.7843 41.2079 22.8663 40.2822Z" fill="black"/>
<path d="M67.5211 36.5317H59.2559V39.2557H57.3691V34.2637C57.3744 33.9514 57.4347 33.6426 57.5471 33.3517C57.64 33.0726 57.7954 32.8191 58.0013 32.6109C58.2071 32.4027 58.4579 32.2456 58.7338 32.1517C59.0202 32.0408 59.3232 31.9799 59.6297 31.9717H67.5211V33.8797H59.2559V34.6957H67.5211V36.4957V36.5317Z" fill="black"/>
<path d="M78.3016 37.0002C78.2914 37.3106 78.2292 37.6169 78.1176 37.9062C78.0256 38.1857 77.8705 38.4397 77.6645 38.648C77.4585 38.8563 77.2074 39.0132 76.931 39.1062C76.6454 39.22 76.3419 39.281 76.035 39.2862H70.3924C70.0855 39.281 69.7821 39.22 69.4965 39.1062C69.2201 39.0132 68.969 38.8563 68.763 38.648C68.557 38.4397 68.4019 38.1857 68.3098 37.9062C68.1973 37.6174 68.137 37.3106 68.1318 37.0002V31.9902H70.0364V37.4382H76.4148V31.9902H78.2956L78.3016 37.0002Z" fill="black"/>
<path d="M89.4391 31.9899V37.5339C89.4337 37.7862 89.3729 38.0342 89.2611 38.2599C89.161 38.5041 89.0067 38.7217 88.8102 38.8959C88.6343 39.0695 88.418 39.1954 88.1812 39.2619C87.9541 39.3637 87.7111 39.4247 87.4633 39.4419C86.9474 39.4121 86.4628 39.1821 86.1105 38.7999L81.0138 33.6279V39.1659H79.127V33.7179C79.1325 33.4636 79.1933 33.2137 79.305 32.9859C79.4356 32.7603 79.5866 32.5474 79.7559 32.3499C79.9503 32.1792 80.161 32.0284 80.3848 31.8999C80.6116 31.796 80.8546 31.7331 81.1028 31.7139C81.3528 31.7208 81.5981 31.7844 81.8207 31.8999C82.0455 32.027 82.2563 32.1778 82.4496 32.3499L87.5404 37.5279V31.9899H89.4391Z" fill="black"/>
<path d="M67.5213 46.4379C67.5201 46.7465 67.468 47.0527 67.367 47.3439C67.2746 47.6231 67.1193 47.8769 66.9134 48.0851C66.7075 48.2934 66.4565 48.4504 66.1804 48.5439C65.8926 48.6571 65.5873 48.718 65.2785 48.7239H59.6122C59.3053 48.7186 59.0018 48.6576 58.7162 48.5439C58.4409 48.4488 58.1908 48.2912 57.9851 48.0832C57.7794 47.8752 57.6236 47.6223 57.5296 47.3439C57.4177 47.0549 57.3574 46.7481 57.3516 46.4379V43.7079C57.3695 43.399 57.4294 43.0942 57.5296 42.8019C57.6236 42.5235 57.7794 42.2706 57.9851 42.0626C58.1908 41.8546 58.4409 41.697 58.7162 41.6019C59.0018 41.4881 59.3053 41.4271 59.6122 41.4219H67.5213V43.3299H59.2562V46.8699H65.6345V46.0719H62.4008V44.1639H67.5154L67.5213 46.4379Z" fill="black"/>
<path d="M78.5691 48.7957H70.6659C70.3572 48.7899 70.0519 48.7289 69.7641 48.6157C69.4888 48.5206 69.2387 48.363 69.033 48.155C68.8273 47.947 68.6715 47.6941 68.5774 47.4157C68.465 47.1248 68.4047 46.816 68.3994 46.5037V43.7977C68.4133 43.4884 68.4734 43.1829 68.5774 42.8917C68.6694 42.6122 68.8246 42.3583 69.0306 42.15C69.2366 41.9417 69.4877 41.7848 69.7641 41.6917C70.0497 41.578 70.3531 41.517 70.66 41.5117H78.5691V43.4137H70.3337V44.1457H78.5988V46.0537H70.3337V46.8697H78.5988L78.5691 48.7957Z" fill="black"/>
<path d="M89.6171 41.4402V46.9782C89.6123 47.2326 89.5515 47.4826 89.439 47.7102C89.3433 47.9568 89.1883 48.1754 88.9881 48.3462C88.8127 48.5191 88.5961 48.6432 88.3592 48.7062C88.1334 48.8128 87.8899 48.8759 87.6412 48.8922C87.3912 48.8853 87.1459 48.8217 86.9233 48.7062C86.6802 48.6108 86.4642 48.4563 86.2944 48.2562L81.1739 43.0782V48.6162H79.2871V43.0722C79.2955 42.8203 79.3562 42.5729 79.4651 42.3462C79.5636 42.1012 79.7182 41.8832 79.916 41.7102C80.1087 41.5356 80.3196 41.3827 80.545 41.2542C80.7716 41.1509 81.0148 41.0899 81.2629 41.0742C81.5144 41.079 81.7617 41.1405 81.9868 41.2542C82.2306 41.3511 82.4467 41.5078 82.6157 41.7102L87.7362 46.8882V41.4402H89.6171Z" fill="black"/>
<path d="M100.671 48.7957H92.7616C92.4547 48.7905 92.1512 48.7295 91.8656 48.6157C91.5897 48.5218 91.339 48.3647 91.1331 48.1565C90.9272 47.9483 90.7718 47.6948 90.679 47.4157C90.5665 47.1248 90.5062 46.816 90.501 46.5037V43.7977C90.5149 43.4884 90.5749 43.1829 90.679 42.8917C90.771 42.6122 90.9261 42.3583 91.1321 42.15C91.3381 41.9417 91.5893 41.7848 91.8656 41.6917C92.1512 41.578 92.4547 41.517 92.7616 41.5117H100.671V43.4137H92.4056V44.1457H100.671V46.0537H92.4056V46.8697H100.671V48.7957Z" fill="black"/>
<path d="M111.718 48.7964H109.832V46.8884H103.453V48.7964H101.566V41.4404H109.493C109.801 41.458 110.104 41.5186 110.395 41.6204C110.67 41.7155 110.921 41.8731 111.126 42.0811C111.332 42.2891 111.488 42.542 111.582 42.8204C111.694 43.1092 111.755 43.4161 111.76 43.7264V44.5424C111.755 44.7968 111.694 45.0469 111.582 45.2744C111.505 45.5072 111.344 45.7021 111.131 45.8204C111.306 45.9774 111.458 46.1593 111.582 46.3604C111.682 46.5924 111.742 46.84 111.76 47.0924V48.8144L111.718 48.7964ZM109.832 44.9804V43.3484H103.453V44.9804H109.832Z" fill="black"/>
<path d="M124.659 48.7958H122.227L121.236 47.4398H115.13L114.14 48.8018H111.719L116.572 42.2558C116.768 41.9979 117.012 41.7818 117.29 41.6198C117.56 41.4507 117.869 41.3575 118.186 41.3498C118.507 41.345 118.821 41.4392 119.088 41.6198C119.366 41.7818 119.61 41.9979 119.806 42.2558L124.659 48.7958ZM119.913 45.4358L118.204 43.0718L116.495 45.4358H119.913Z" fill="black"/>
<path d="M132.04 43.3484H127.887V48.7964H126V43.3484H121.847V41.4404H131.933V43.3484H132.04Z" fill="black"/>
<path d="M134.538 48.7964H132.634V41.4404H134.521L134.538 48.7964Z" fill="black"/>
<path d="M145.497 46.4379C145.491 46.7481 145.431 47.0549 145.319 47.3439C145.225 47.6223 145.069 47.8752 144.864 48.0832C144.658 48.2912 144.408 48.4488 144.132 48.5439C143.847 48.657 143.543 48.718 143.237 48.7239H137.576C137.267 48.718 136.962 48.6571 136.674 48.5439C136.399 48.4488 136.149 48.2912 135.943 48.0832C135.737 47.8752 135.582 47.6223 135.488 47.3439C135.378 47.0541 135.318 46.7478 135.31 46.4379V43.7079C135.328 43.399 135.387 43.0942 135.488 42.8019C135.582 42.5235 135.737 42.2706 135.943 42.0626C136.149 41.8546 136.399 41.697 136.674 41.6019C136.962 41.4886 137.267 41.4277 137.576 41.4219H143.237C143.542 41.44 143.843 41.5006 144.132 41.6019C144.408 41.697 144.658 41.8546 144.864 42.0626C145.069 42.2706 145.225 42.5235 145.319 42.8019C145.432 43.0907 145.492 43.3975 145.497 43.7079V46.4379ZM143.61 46.8879V43.3479H137.232V46.8879H143.61Z" fill="black"/>
<path d="M156.64 41.4402V46.9782C156.63 47.2326 156.568 47.4821 156.456 47.7102C156.36 47.9552 156.208 48.1733 156.011 48.3462C155.833 48.5183 155.614 48.6421 155.376 48.7062C155.15 48.8128 154.907 48.8759 154.658 48.8922C154.408 48.8845 154.163 48.821 153.94 48.7062C153.698 48.6093 153.482 48.455 153.311 48.2562L148.191 43.0782V48.6162H146.28V43.0722C146.287 42.8194 146.35 42.5713 146.464 42.3462C146.559 42.1004 146.711 41.882 146.909 41.7102C147.103 41.5371 147.314 41.3843 147.538 41.2542C147.767 41.1502 148.012 41.0892 148.262 41.0742C148.512 41.0797 148.757 41.1412 148.98 41.2542C149.224 41.3511 149.44 41.5078 149.609 41.7102L154.729 46.8882V41.4402H156.64Z" fill="black"/>
<path d="M169.485 48.7964H163.486C163.181 48.7783 162.879 48.7177 162.59 48.6164C162.314 48.5226 162.064 48.3654 161.858 48.1572C161.652 47.949 161.496 47.6955 161.404 47.4164C161.292 47.1275 161.231 46.8207 161.226 46.5104V41.4404H163.112V46.8884H169.491L169.485 48.7964Z" fill="black"/>
<path d="M177.032 43.3484H172.879V48.7964H170.992V43.3484H166.839V41.4404H176.896V43.3484H177.032Z" fill="black"/>
<path d="M187.813 46.4384C187.802 46.7487 187.74 47.055 187.629 47.3444C187.536 47.6235 187.381 47.877 187.175 48.0852C186.969 48.2934 186.718 48.4505 186.442 48.5444C186.157 48.6582 185.853 48.7192 185.547 48.7244H177.661V41.4404H185.564C185.871 41.4457 186.175 41.5067 186.46 41.6204C186.736 41.7143 186.987 41.8715 187.193 42.0797C187.399 42.2879 187.554 42.5414 187.647 42.8204C187.759 43.1092 187.82 43.4161 187.825 43.7264L187.813 46.4384ZM185.926 46.8884V43.3484H179.548V46.8884H185.926Z" fill="black"/>
</svg>
