<svg width="200" height="80" viewBox="0 0 200 80" fill="none" xmlns="http://www.w3.org/2000/svg">
<path fill-rule="evenodd" clip-rule="evenodd" d="M3.33301 15.0332H54.1463V65.8465H3.33301V15.0332Z" fill="#1D1D1B"/>
<path fill-rule="evenodd" clip-rule="evenodd" d="M4.7998 16.5068H52.6798V64.3802H4.7998V16.5068Z" fill="#FFEC00"/>
<path fill-rule="evenodd" clip-rule="evenodd" d="M7.33312 54.7066L13.5798 61.0732L28.2465 46.2266L43.3331 61.3799L49.6731 55.1066L34.7065 40.1332L37.5865 37.3332V31.3999L39.3931 29.8666V34.5332L41.7198 36.4332L48.6665 29.4799L50.8998 31.1999C52.2331 26.3332 44.5931 15.2799 38.2931 21.3999L30.9465 28.6666L32.4465 30.4732L28.7065 34.1332L25.0998 30.5866L26.9931 28.8732L18.9465 21.0932C12.8865 16.1066 6.66646 23.6999 6.45312 31.0932L8.66646 29.2666L15.4265 36.5532L17.8398 34.5532V30.0666L19.3331 31.1999V37.0466L22.2798 39.9999L7.33312 54.7066Z" fill="#1D1D1B"/>
<path fill-rule="evenodd" clip-rule="evenodd" d="M67.1263 21.1266V25.5333H69.0197C71.6263 25.0466 70.9197 21.3133 69.0197 21.1266H67.1263ZM61.7397 16.7466V36.7066H67.1263V30.2199L71.713 36.7066H78.0797L72.4197 28.7066C78.973 25.5199 76.5197 16.8266 69.633 16.7066L61.7397 16.7466ZM86.653 26.7466C87.2394 26.7805 87.803 26.9853 88.2743 27.3359C88.7455 27.6865 89.1038 28.1674 89.3048 28.7193C89.5058 29.2712 89.5408 29.8698 89.4054 30.4414C89.27 31.0129 88.9701 31.5323 88.5429 31.9353C88.1157 32.3384 87.5797 32.6074 87.0013 32.7093C86.4229 32.8112 85.8272 32.7415 85.288 32.5087C84.7487 32.2759 84.2895 31.8903 83.9669 31.3994C83.6444 30.9085 83.4727 30.334 83.473 29.7466C83.5026 28.929 83.8528 28.156 84.4479 27.5946C85.043 27.0332 85.8351 26.7286 86.653 26.7466ZM85.5197 22.3399C86.9543 22.3426 88.3525 22.7923 89.5197 23.6266V22.8399H94.7863V36.7066H89.453V35.8466C88.2835 36.673 86.885 37.1136 85.453 37.1066C83.5465 37.0256 81.745 36.2113 80.4246 34.8336C79.1042 33.456 78.3671 31.6215 78.3671 29.7133C78.3671 27.805 79.1042 25.9706 80.4246 24.5929C81.745 23.2153 83.5465 22.4009 85.453 22.3199L85.5197 22.3399ZM97.5797 22.8599H103.186V36.7266H97.5797V22.8399V22.8599ZM100.4 14.9333C100.988 14.9333 101.563 15.1078 102.052 15.4348C102.541 15.7618 102.922 16.2266 103.147 16.7703C103.372 17.314 103.431 17.9122 103.315 18.4891C103.2 19.0661 102.916 19.5959 102.5 20.0114C102.083 20.427 101.553 20.7096 100.976 20.8236C100.398 20.9376 99.8004 20.8778 99.2572 20.6517C98.714 20.4256 98.2501 20.0435 97.9242 19.5536C97.5983 19.0638 97.425 18.4883 97.4263 17.8999C97.4255 17.5095 97.5018 17.1228 97.651 16.7621C97.8002 16.4013 98.0193 16.0736 98.2956 15.7979C98.572 15.5221 98.9002 15.3038 99.2613 15.1554C99.6224 15.007 100.009 14.9315 100.4 14.9333ZM142.913 22.8599H148.52V36.7266H142.913V22.8399V22.8599ZM145.7 14.9333C146.289 14.9267 146.868 15.0956 147.361 15.4185C147.855 15.7415 148.241 16.2039 148.471 16.747C148.701 17.2901 148.764 17.8893 148.653 18.4684C148.541 19.0476 148.26 19.5805 147.845 19.9994C147.43 20.4183 146.899 20.7043 146.321 20.821C145.743 20.9377 145.144 20.8798 144.598 20.6547C144.053 20.4297 143.587 20.0476 143.26 19.5571C142.933 19.0665 142.758 18.4897 142.76 17.8999C142.761 17.1183 143.071 16.3687 143.621 15.8135C144.171 15.2582 144.918 14.942 145.7 14.9333ZM104.226 22.8399V27.2466H106.153V36.7066H111.573V27.2466H116.666V36.7066H122.266V27.1866H125.753V22.8999H122.113V19.8133C122.02 18.6799 124.686 18.2199 125.606 19.1466V14.6066C120.46 12.9866 116.273 15.8933 116.326 20.3933V22.8399H111.553V19.8133C111.493 18.6799 113.82 18.2199 115.166 19.1466V14.6066C110.693 13.2733 105.92 15.4666 105.953 20.3599V22.8066H104.24L104.226 22.8399ZM133.733 37.1066C138.54 37.1066 140.313 35.1066 141.353 32.1733H136.486C134.28 34.9933 131.066 32.9399 131.22 30.6466H141.506C141.506 25.0133 138.506 22.3533 133.733 22.3533C128.96 22.3533 125.96 25.6866 125.96 29.8199C125.96 33.9533 129.446 37.1533 133.733 37.1066ZM131.926 27.3733C131.986 25.6866 135.66 25.6866 135.926 27.3733H131.926ZM171.873 37.1066C176.706 37.1066 178.486 35.1066 179.526 32.1733H174.626C172.426 34.9933 169.206 32.9399 169.36 30.6466H179.646C179.646 25.0133 176.68 22.3533 171.873 22.3533C167.066 22.3533 164.1 25.6866 164.1 29.8199C164.1 33.9533 167.586 37.1533 171.873 37.1066ZM170.066 27.3733C170.126 25.6866 173.8 25.6866 174.066 27.3733H170.066ZM162.626 23.1133L160.973 26.4466C158.893 25.7799 156.873 25.9266 156.933 26.5133C156.993 26.8799 156.66 27.5199 159.906 27.9799C164.74 28.7466 164.34 37.7466 156.233 37.0733C154.277 36.9958 152.367 36.4493 150.666 35.4799L152.466 31.8733C155.013 33.1266 157.46 33.8733 157.64 32.6066C157.86 31.0466 154.973 31.5933 153.233 30.2799C150.113 28.3533 151.9 22.3799 157 22.3199C158.899 22.2339 160.799 22.503 162.6 23.1133H162.626ZM181.793 22.8399V36.7066H187.026V28.2266C187.18 26.1133 191.34 25.7466 191.373 28.2266V36.7066H196.666V27.9999C196.546 23.1333 191.433 20.7733 186.813 23.8666V22.8399H181.793ZM64.8263 45.1866L61.333 65.7533H71.2197C77.9263 65.7533 80.6797 57.4266 75.8863 54.5799C79.9597 50.8199 77.8863 45.1533 73.4997 45.0933L64.833 45.1866H64.8263ZM68.8263 57.4599L68.1197 60.8599H70.4197C73.0197 60.9799 72.713 57.4599 71.213 57.4599H68.8263ZM69.9997 50.0866L69.4197 52.8399H70.1263C72.2397 52.9666 73.4597 50.0599 70.9197 50.0599L69.9997 50.0866ZM78.1463 65.7866H84.1463L85.9463 62.1733H92.7463L93.753 65.8466H99.293L94.493 45.3333H88.8263L78.1597 65.8133L78.1463 65.7866ZM87.9063 57.8599H91.6397L90.4463 52.4399L87.9063 57.8599ZM101.193 65.8599H106.733L108.14 52.9733L116.073 65.7999H122L124.48 45.1999H118.94L117.38 58.0866L109.46 45.1266H103.733L101.193 65.8466V65.8599ZM128.466 45.1266L124.58 65.7933H130.426L132 58.0733L137.233 65.7866H144.92L137.406 54.9533L146.986 45.0933H139.546L133 52.3799L134.04 45.0933H128.466V45.1266Z" fill="#1D1D1B"/>
</svg>
