<svg width="200" height="80" viewBox="0 0 200 80" fill="none" xmlns="http://www.w3.org/2000/svg">
<g clip-path="url(#clip0_601_2370)">
<path fill-rule="evenodd" clip-rule="evenodd" d="M4.00684 25.0537H200V68.1537H4.00684V25.0537Z" fill="#312783"/>
<path fill-rule="evenodd" clip-rule="evenodd" d="M42.5732 54.4066L47.9066 34.7399H55.5066C57.4132 34.7399 58.3132 35.8532 58.1732 38.1132L57.7466 44.6666L62.7599 34.7266H73.0332L67.5532 54.3932H61.0199L64.7532 41.0599L57.7466 54.3932H52.2732L52.7399 40.8332L48.9266 54.4066H42.5732Z" fill="white"/>
<path fill-rule="evenodd" clip-rule="evenodd" d="M71.5068 54.4069L77.0068 34.7402H84.1735L78.6468 54.4069H71.5068Z" fill="white"/>
<path fill-rule="evenodd" clip-rule="evenodd" d="M106.973 34.7402L101.333 54.4069H108.2L110.186 47.5202L113.753 47.5936L111.82 54.4069H118.686L124.053 34.7402H117.106L115.12 41.5269L111.766 41.5936L113.753 34.7402H106.973Z" fill="white"/>
<path fill-rule="evenodd" clip-rule="evenodd" d="M128.027 34.7402H142.96L141.567 39.8402H133.56L132.88 41.8469L141 41.9202L139.607 46.9802L131.52 47.0536L130.92 48.7736L139.147 48.7069L137.593 54.4069H122.58L128.027 34.7402Z" fill="white"/>
<path fill-rule="evenodd" clip-rule="evenodd" d="M146.64 34.7402L141.106 54.4069H154.92L157.126 47.5202L149.986 47.5936L153.606 34.7402H146.64Z" fill="white"/>
<path fill-rule="evenodd" clip-rule="evenodd" d="M157.34 54.4069L162.707 34.7402H169.9L164.34 54.4069H157.34Z" fill="white"/>
<path fill-rule="evenodd" clip-rule="evenodd" d="M168.32 54.4069L173.74 34.7402H181.667C183.194 34.7402 184.174 35.7136 184.12 37.5069L183.82 47.2669L187.44 34.7402H193.38L187.96 54.4069H177.827L178.234 40.8069L174.474 54.4069H168.32Z" fill="white"/>
<path fill-rule="evenodd" clip-rule="evenodd" d="M100 47.7331L98.1468 53.7998C96.4273 54.259 94.6642 54.536 92.8868 54.6265C91.5796 54.6961 90.2717 54.5063 89.0382 54.068C87.8048 53.6298 86.6703 52.9518 85.7001 52.0731C84.7221 50.9261 84.1277 49.5017 84.0001 47.9998C83.9676 46.9513 84.0684 45.9029 84.3001 44.8798C86.1268 38.4531 90.7868 35.1131 98.5468 34.2931C100.24 34.259 101.916 34.6413 103.427 35.4065L101.333 41.8865C101.109 41.3564 100.74 40.9002 100.268 40.5701C99.7966 40.24 99.2416 40.0493 98.6668 40.0198C98.0912 39.9821 97.5132 40.018 96.9468 40.1265C93.7868 41.0198 92.3734 42.8531 92.2068 44.8998C92.1429 45.4619 92.1631 46.0303 92.2668 46.5865C92.6468 48.3064 95.3134 48.7731 95.8868 48.7398C97.3222 48.7683 98.7401 48.4213 100 47.7331Z" fill="white"/>
<path fill-rule="evenodd" clip-rule="evenodd" d="M4.00684 60.333H162.82L161.92 63.0263H4.00684V60.333Z" fill="#FFED00"/>
<path fill-rule="evenodd" clip-rule="evenodd" d="M23.4801 0.253669C24.8735 0.180335 25.1401 0.920336 25.3868 1.76034C27.2668 2.08034 27.9735 3.84034 28.1668 6.28034C29.8801 9.047 29.8268 11.1603 28.9268 12.9937C30.9038 13.4107 32.7403 14.329 34.2601 15.6603C35.9801 16.807 36.6624 18.5292 36.3068 20.827C37.9135 23.407 37.8001 25.4937 37.4468 27.607H37.3668L37.4468 27.7137C38.1674 28.8296 38.5728 30.1195 38.6201 31.447C40.4468 32.487 41.1535 34.5003 40.2268 37.907L41.4001 38.5737C44.9668 43.0603 43.8201 46.287 40.5001 45.5337C39.2468 46.5403 38.1001 47.2203 37.6401 45.3937L36.9735 43.8803C36.1468 43.5737 36.0001 42.667 36.5268 41.3337C35.4144 41.1248 34.406 40.5442 33.6668 39.687C33.6915 41.3359 33.376 42.9721 32.7401 44.4937C33.3335 47.5203 32.6668 49.3337 31.4935 50.567C31.4601 51.6803 31.4601 52.7937 31.4335 53.9003C31.9115 54.8798 32.0966 55.9764 31.9665 57.0585C31.8364 58.1406 31.3967 59.1621 30.7001 60.0003C30.7801 63.0203 30.2401 65.3337 28.3268 66.247C28.5468 67.0003 28.7401 67.7937 28.9268 68.5403C29.9135 69.4737 30.9268 70.447 31.8735 71.3803C32.0335 72.207 32.2268 73.067 32.4135 73.927C32.4135 75.4737 31.4068 76.5937 29.3935 77.407C28.2735 77.3403 27.3468 77.227 26.2068 77.1603C25.8268 76.547 25.2001 75.9403 24.8135 75.327C24.3001 74.427 23.7801 73.5337 23.2335 72.6603C21.9535 70.7937 21.5201 68.567 22.9668 65.6603C21.2201 64.8403 20.8135 61.8937 21.0268 57.9803C20.8135 57.4803 20.7268 56.647 20.5135 56.187C20.4335 56.367 20.2135 56.907 20.1335 57.1203C20.0468 60.747 19.1201 62.7937 17.8401 64.087C17.1068 67.527 15.8401 68.6803 14.3535 68.787C13.679 69.8798 13.4409 71.1866 13.6868 72.447C13.8535 73.9937 14.4535 75.5337 14.2335 77.0737C13.5668 82.407 5.13347 79.8737 5.62681 74.6337C6.00014 71.8203 8.66681 70.0003 9.18014 67.0403C7.43348 64.7137 6.81348 62.0537 8.60681 58.6803C8.12014 54.8403 9.23348 52.4003 11.1135 50.6403C10.4868 47.627 10.6801 44.9337 12.0401 42.707C11.5957 39.5959 11.9224 37.6581 13.0201 36.8937C12.5442 35.3733 12.4503 33.759 12.7468 32.1937C12.6135 31.527 12.5068 30.8603 12.3935 30.1937C12.2571 30.1882 12.1205 30.1993 11.9868 30.227C10.6535 30.047 9.67348 28.8937 8.85348 27.107C6.78014 26.8937 5.34014 25.107 4.49347 21.7737C3.48681 20.807 2.75347 19.367 2.58681 17.107C2.23823 16.3242 2.08121 15.4696 2.12874 14.614C2.17628 13.7584 2.427 12.9264 2.86014 12.187C2.33011 11.8617 1.89008 11.4088 1.58029 10.8696C1.2705 10.3303 1.10084 9.72205 1.08681 9.10034C0.546808 8.827 0.353474 6.35367 0.380141 3.407C-0.0531923 3.19367 -0.193192 2.587 0.000141017 1.58034L0.546808 0.860335L1.20014 0.000335425C1.33996 -0.087773 1.49623 -0.146554 1.65946 -0.172441C1.82269 -0.198328 1.98947 -0.19078 2.14969 -0.150257C2.30992 -0.109734 2.46024 -0.0370796 2.59153 0.0632971C2.72282 0.163674 2.83235 0.28968 2.91347 0.433669C4.33348 0.213669 4.98681 1.29367 5.50014 2.547C6.62014 1.61367 7.62681 1.61367 8.39348 3.767C8.35657 4.37887 8.19791 4.97723 7.92681 5.527C8.51085 6.64181 8.76741 7.89917 8.66681 9.15367C9.29348 9.82034 10.3068 10.947 10.3601 11.987C10.2468 11.807 11.1735 12.5603 12.2935 13.887C13.3284 13.7227 14.3882 13.928 15.2868 14.467C16.1609 13.8955 17.1897 13.6069 18.2335 13.6403C17.6068 11.7337 17.3601 9.94034 18.4468 8.04034C18.2868 5.167 19.0735 3.01367 21.1135 1.76034C21.2975 1.29088 21.6259 0.891993 22.0512 0.621204C22.4766 0.350416 22.9769 0.221718 23.4801 0.253669Z" fill="white"/>
<path fill-rule="evenodd" clip-rule="evenodd" d="M41.4068 38.6203L40.2335 37.9537C40.9001 35.5537 40.7268 33.827 39.9068 32.6203C39.7198 32.35 39.4953 32.1076 39.2401 31.9003C39.0468 31.7537 38.8335 31.6137 38.6135 31.467C38.6135 31.107 38.5601 30.8003 38.5068 30.467C38.3785 29.5733 38.0627 28.7168 37.5801 27.9537C37.5268 27.8803 37.5001 27.807 37.4401 27.7337C37.3801 27.6603 37.3868 27.667 37.3601 27.667V27.627H37.4401C37.503 27.3432 37.5497 27.0561 37.5801 26.767C37.7002 25.8978 37.7002 25.0162 37.5801 24.147C37.5323 23.8195 37.4587 23.4963 37.3601 23.1803C37.1545 22.4795 36.861 21.8075 36.4868 21.1803C36.4335 21.0737 36.3535 20.967 36.3001 20.8603C36.6557 18.5581 35.9735 16.8359 34.2535 15.6937C34.2535 15.6537 34.2535 15.6537 34.2535 15.6537C34.1082 15.5451 33.9722 15.4247 33.8468 15.2937C32.4023 14.1736 30.726 13.3901 28.9401 13.0003C29.7601 11.3137 29.8668 9.407 28.5601 6.93367C28.4268 6.72034 28.3135 6.50034 28.1801 6.267C28.0001 3.84034 27.2668 2.08034 25.3868 1.76034C25.3868 1.72034 25.3868 1.72034 25.3868 1.687C25.1935 1.07367 25.0068 0.540335 24.3535 0.353669C24.079 0.272686 23.7906 0.249978 23.5068 0.287002C23.2247 0.26981 22.9416 0.294523 22.6668 0.360335C22.3237 0.464441 22.0084 0.644297 21.7442 0.886617C21.4799 1.12894 21.2735 1.42753 21.1401 1.76034C19.0935 3.01367 18.3068 5.167 18.4735 8.04034C17.3868 9.94034 17.6335 11.7337 18.2601 13.6403C17.9671 13.6294 17.6739 13.654 17.3868 13.7137C16.644 13.7891 15.9315 14.048 15.3135 14.467C14.4148 13.928 13.3551 13.7227 12.3201 13.887C11.7985 13.2966 11.2466 12.7337 10.6668 12.2003C10.5676 12.105 10.4553 12.0242 10.3335 11.9603C10.2668 10.927 9.27348 9.79367 8.64681 9.15367C8.74945 7.8998 8.49522 6.64248 7.91348 5.527C8.18458 4.97723 8.34323 4.37887 8.38014 3.767C8.21799 3.20033 7.91794 2.68268 7.50681 2.26034C6.90681 1.72034 6.22681 1.94034 5.50681 2.547C5.278 1.87357 4.88372 1.26839 4.36014 0.787002C4.16456 0.617181 3.93124 0.496522 3.67962 0.435065C3.42799 0.373608 3.16532 0.373129 2.91347 0.433669C2.83235 0.28968 2.72282 0.163674 2.59153 0.0632971C2.46024 -0.0370796 2.30992 -0.109734 2.14969 -0.150257C1.98947 -0.19078 1.82269 -0.198328 1.65946 -0.172441C1.49623 -0.146554 1.33996 -0.087773 1.20014 0.000335425L0.533474 0.860335L0.000141017 1.58034C-0.193192 2.587 -0.0531923 3.19367 0.380141 3.407C0.380141 6.35367 0.433474 8.54034 1.04681 9.15367C1.06906 9.7713 1.24539 10.3736 1.55976 10.9057C1.87414 11.4378 2.31657 11.8828 2.84681 12.2003C2.41367 12.9397 2.16294 13.7717 2.11541 14.6273C2.06787 15.4829 2.2249 16.3375 2.57347 17.1203C2.58882 18.8157 3.21895 20.4478 4.34681 21.7137C4.40014 21.7137 4.42681 21.787 4.48014 21.8203C5.14681 24.367 6.14014 26.0203 7.50681 26.7403C7.91867 26.9637 8.37299 27.0977 8.84014 27.1337C9.23104 28.1308 9.85783 29.0184 10.6668 29.7203C11.0625 30.0016 11.5196 30.1844 12.0001 30.2537C12.1338 30.226 12.2704 30.2148 12.4068 30.2203C12.5201 30.887 12.6268 31.5537 12.7601 32.2203C12.4636 33.7857 12.5575 35.3999 13.0335 36.9203C11.9001 37.6403 11.569 39.5692 12.0401 42.707C10.7068 44.9337 10.4868 47.627 11.1135 50.6403C10.9801 50.787 10.8135 50.927 10.6801 51.0737C9.07348 52.7937 8.14681 55.127 8.60681 58.6803C6.81348 62.0537 7.43348 64.6803 9.18014 67.0403C8.87777 68.3266 8.3126 69.5364 7.52014 70.5937C6.67348 71.887 5.82681 73.107 5.61348 74.5937C5.54018 75.3989 5.67739 76.2094 6.01163 76.9457C6.34588 77.682 6.8657 78.3188 7.52014 78.7937C8.42239 79.5057 9.51982 79.9265 10.6668 80.0003C11.0948 80.051 11.5286 80.014 11.9418 79.8915C12.3551 79.7691 12.739 79.5637 13.0702 79.288C13.4015 79.0123 13.6731 78.672 13.8685 78.2878C14.0639 77.9037 14.179 77.4838 14.2068 77.0537C14.4268 75.5137 13.8268 73.9737 13.6601 72.427C13.4215 71.1665 13.659 69.8624 14.3268 68.767V68.7337C15.5268 68.6603 16.5668 67.907 17.3001 65.8603C17.4601 65.3203 17.6268 64.747 17.7868 64.067C19.0668 62.7737 19.9935 60.7337 20.0801 57.1003C20.1601 56.887 20.3801 56.3137 20.4601 56.1337C20.6735 56.6003 20.6735 57.567 20.8935 58.0737C20.3201 61.7337 21.0601 64.4603 22.5868 65.467C22.6935 65.5337 22.8001 65.5737 22.9135 65.6403L22.8801 65.6803C22.7735 65.927 22.6668 66.147 22.5868 66.347C22.1989 67.1659 21.9976 68.0608 21.9976 68.967C21.9976 69.8732 22.1989 70.7681 22.5868 71.587C22.7555 71.9495 22.954 72.2973 23.1801 72.627C23.5668 73.2403 23.9201 73.847 24.2735 74.4603L24.7601 75.3203C24.9268 75.607 25.1135 75.9337 25.3068 76.2537C25.5002 76.6263 25.7934 76.9379 26.1535 77.1537C26.9009 77.429 27.7051 77.5138 28.4935 77.4003C28.7747 77.367 29.0589 77.367 29.3401 77.4003C31.3401 76.6137 32.3335 75.467 32.3601 73.9203C32.4151 73.0381 32.2284 72.1577 31.8201 71.3737C30.8401 70.4403 29.8601 69.467 28.8735 68.5337C28.7668 68.0337 28.6335 67.5337 28.4935 66.9937C28.4135 66.7403 28.3601 66.4937 28.2735 66.2403C28.3601 66.2403 28.4135 66.167 28.4935 66.1337C30.2135 65.1603 30.7268 62.9003 30.6468 59.9937C31.3434 59.1554 31.7831 58.1339 31.9132 57.0518C32.0433 55.9697 31.8582 54.8731 31.3801 53.8937C31.3801 52.7803 31.3801 51.667 31.4401 50.5603C32.6668 49.3337 33.3335 47.5203 32.7401 44.467C33.376 42.9455 33.6915 41.3092 33.6668 39.6603C33.7268 39.6603 33.7801 39.767 33.8335 39.8003C33.9606 39.942 34.0964 40.0756 34.2401 40.2003C34.8698 40.7752 35.6567 41.149 36.5001 41.2737V41.307C36.4947 41.3311 36.4947 41.3562 36.5001 41.3803C36.1201 42.387 36.1201 43.107 36.5001 43.5737C36.6417 43.7205 36.8089 43.8403 36.9935 43.927C37.1268 44.2137 37.2668 44.507 37.3735 44.7937C37.4535 44.9737 37.5135 45.147 37.5935 45.2937C37.6055 45.3445 37.6234 45.3937 37.6468 45.4403C37.8401 46.1937 38.1401 46.5137 38.5201 46.587C38.7731 46.6008 39.0253 46.5504 39.2535 46.4403C39.4844 46.3246 39.7072 46.1932 39.9201 46.047C40.1401 45.9003 40.3268 45.727 40.5201 45.5803C42.2668 45.9737 43.4068 45.2603 43.6001 43.8937V43.0003C43.2734 41.3733 42.5212 39.862 41.4201 38.6203H41.4068ZM37.4068 30.9003C37.4396 31.0538 37.4575 31.2101 37.4601 31.367V31.547C37.4547 31.61 37.4366 31.6712 37.4068 31.727C37.3268 31.9803 37.2135 32.1937 37.1068 32.447C37.0001 32.7003 36.8868 32.8737 36.7535 33.1137C36.7001 33.2428 36.6258 33.3622 36.5335 33.467C36.4181 33.6547 36.2912 33.835 36.1535 34.007C36.0355 34.1462 35.9086 34.2776 35.7735 34.4003C35.5794 34.5748 35.3696 34.731 35.1468 34.867C35.0068 34.9403 34.8735 34.9803 34.7668 35.047C34.6059 35.091 34.4403 35.1156 34.2735 35.1203H34.0868C34.0147 35.139 33.939 35.139 33.8668 35.1203V34.6537L33.7868 33.5737V33.5403L33.8935 33.3937L33.9468 33.287L34.3001 32.6203L34.3801 32.4737L34.7135 31.5803L34.9268 30.607V30.3203C35.0401 30.287 35.1201 30.247 35.2268 30.2137L35.5001 30.0003C35.6439 29.878 35.7797 29.7466 35.9068 29.607C36.0428 29.4661 36.1614 29.3094 36.2601 29.1403C36.3468 28.9937 36.4268 28.8537 36.5068 28.7403L36.6468 28.9203C37.0433 29.5381 37.2941 30.238 37.3801 30.967L37.4068 30.9003ZM35.4935 22.8603C35.5735 22.7203 35.6335 22.5403 35.7135 22.3603C35.8915 22.684 36.0453 23.0205 36.1735 23.367C36.2268 23.5803 36.3135 23.7937 36.3668 24.0337C36.4286 24.1952 36.4733 24.3628 36.5001 24.5337C36.5268 24.8442 36.5268 25.1565 36.5001 25.467C36.4117 26.3239 36.1866 27.1612 35.8335 27.947L35.7001 28.1937C35.6185 28.3332 35.5272 28.4669 35.4268 28.5937C35.2797 28.7575 35.1239 28.9132 34.9601 29.0603V28.3937L34.8401 27.3337L34.5668 26.1137L34.2401 25.1803V25.0337V24.927L34.3801 24.567L34.5135 23.9937L34.6201 23.9203L34.8935 23.707C35.0394 23.5682 35.1671 23.4114 35.2735 23.2403L35.4935 22.8803V22.8603ZM33.4935 16.8603C33.5966 16.9635 33.716 17.0491 33.8468 17.1137C33.8914 17.1695 33.9456 17.2169 34.0068 17.2537L34.2535 17.467C34.5382 17.7085 34.7716 18.0046 34.9399 18.3378C35.1082 18.671 35.208 19.0346 35.2335 19.407C35.2476 19.9239 35.2209 20.441 35.1535 20.9537V20.987C35.1332 21.2643 35.0976 21.5403 35.0468 21.8137C34.968 21.9744 34.9033 22.1417 34.8535 22.3137C34.8001 22.387 34.7468 22.4937 34.6935 22.567L34.6335 21.847L34.4735 20.8803L34.2801 20.2137L34.1735 19.8603L33.8735 19.067L33.7668 18.8203L33.3268 17.9937L33.3801 17.7737V17.5937V17.3337V17.1203C33.3769 16.9617 33.3499 16.8044 33.3001 16.6537C33.3801 16.727 33.4668 16.7937 33.5201 16.8337L33.4935 16.8603ZM32.8268 18.907L33.0401 19.3737L33.4268 20.307L33.6668 21.167L33.8068 22.0003V22.5337V22.8937L33.7535 23.507L33.5868 24.1737L33.3401 24.8403L33.0468 25.447L32.6668 26.0003L32.1801 26.5003L31.6335 27.0003L31.0335 27.467L30.3668 27.867L29.6601 28.2203L28.8935 28.547L28.5401 28.6537L28.1068 28.8003L27.2868 29.0137L26.4468 29.1937L25.5735 29.267H25.3535H24.7268H23.8601L23.0201 29.2003L22.6668 29.2137L22.2001 29.1403L21.3335 29.0003L20.5468 28.787L19.7868 28.5003L19.0735 28.1737L18.4068 27.8137L17.8068 27.347L17.3335 26.9203V26.8803L17.0801 26.667L17.3268 26.2003V26.1603L17.5401 25.6937L17.7335 25.1937L17.9001 24.6537L18.0335 24.1137L18.1135 23.5403L18.2001 23.0003V22.427V21.8203L18.1401 21.247V21.1737L18.4135 21.3137L18.9068 21.4937L19.4535 21.6737L19.9935 21.8203L20.5401 21.9603L21.0868 22.067L22.2268 22.247H22.6668L23.4801 22.3203H24.6535H25.3868L25.7935 22.2803L26.9401 22.1403L27.4868 22.0337L28.0268 21.927L28.5468 21.747L29.0401 21.6003L29.5268 21.387L30.0201 21.207L30.4801 20.9537L30.9201 20.707L31.3268 20.4137L31.7068 20.127L32.0868 19.807L32.4135 19.447L32.7135 19.0537L32.8001 18.947L32.8268 18.907ZM16.5068 15.8603C16.7085 15.5802 17.0004 15.3778 17.3335 15.287C17.7589 15.1444 18.2116 15.1027 18.6559 15.1652C19.1002 15.2277 19.5239 15.3926 19.8935 15.647C20.1135 15.8603 20.3535 15.647 20.5601 15.687L20.2135 14.667L20.6668 13.8537L19.4668 12.707C19.1735 11.7337 18.6535 10.707 18.9801 9.65367C19.1446 9.13151 19.3825 8.63542 19.6868 8.18034L20.5935 8.00034L20.4868 7.647L19.7735 7.07367C19.7735 5.85367 19.7735 5.207 20.4001 4.23367C20.6909 3.85613 21.0424 3.52946 21.4401 3.267L21.8735 2.98034C22.066 2.62467 22.3035 2.29529 22.5801 2.00034C22.5801 2.00034 22.5801 2.00034 22.6401 2.00034C23.3068 1.28034 24.2201 1.60034 24.3001 2.82034L24.7335 3.00034C24.94 3.05452 25.1409 3.12818 25.3335 3.22034C25.5801 3.36034 25.8268 3.54034 26.1268 3.75367C26.9401 4.547 27.0201 6.487 27.0201 7.63367C28.5468 8.967 28.4135 10.5737 27.6868 12.4803L27.0668 13.1937V14.0937L26.5801 15.2403C26.8435 14.9883 27.1595 14.7978 27.5053 14.6826C27.8512 14.5673 28.2182 14.5301 28.5801 14.5737C28.9784 14.6205 29.3713 14.7054 29.7535 14.827C30.6235 15.0929 31.4566 15.4669 32.2335 15.9403C32.304 16.2921 32.3953 16.6394 32.5068 16.9803C32.5786 17.1741 32.597 17.3837 32.5601 17.587C32.4541 17.8439 32.3152 18.0859 32.1468 18.307L31.9068 18.5937L31.6335 18.9203L31.3068 19.167L30.9801 19.4537L30.6001 19.707L30.1868 19.9203L29.7801 20.1403L29.3135 20.3537L28.8535 20.5337L28.5801 20.607L28.3601 20.6803L27.8735 20.8203L26.8401 21.0337L25.7468 21.1803L25.3935 21.2137L24.6335 21.2537H23.4801L22.6668 21.1403H22.3935L21.2735 20.9603L20.2135 20.747L19.7201 20.6003L19.2068 20.4203L18.7401 20.2403L18.2535 20.0003L18.0001 19.9203L17.8935 19.487L17.7268 18.9137L17.5335 18.3403L17.3335 17.8403V17.767L17.0868 17.227L16.7535 16.667L16.4268 16.167L16.2601 15.9137C16.347 15.909 16.4315 15.8838 16.5068 15.8403V15.8603ZM4.38681 12.0003V11.967L3.54014 10.667C3.08014 10.347 2.48014 10.0603 2.31347 9.37367C1.98489 8.72954 1.74708 8.04303 1.60681 7.33367C1.37372 6.41489 1.37372 5.45245 1.60681 4.53367C1.76681 3.867 2.04014 4.60034 2.20681 5.53367C2.56014 7.71367 3.08014 8.58034 3.13347 8.00034C3.18326 7.7809 3.18326 7.5531 3.13347 7.33367C3.13347 6.76034 1.98681 3.24034 1.63347 3.46034C1.42014 3.42034 1.22681 3.10034 1.17347 2.20034C1.66014 2.00034 2.42681 3.37367 3.81347 6.28034C3.86681 6.427 4.06014 6.28034 4.16681 6.247C4.27348 6.21367 2.00014 1.43367 2.00014 1.54034L2.24681 1.507C3.14681 1.94034 3.82681 3.55367 4.37348 5.06034C4.45624 5.24691 4.52748 5.43838 4.58681 5.63367C4.64681 5.78034 4.97347 5.81367 4.94681 5.63367C4.80947 4.99619 4.61765 4.37167 4.37348 3.767C4.12696 3.16387 3.84879 2.57416 3.54014 2.00034C3.86681 1.927 4.14014 2.147 4.36014 2.50034C4.46681 2.647 4.54681 2.827 4.63347 2.967C4.93404 3.48319 5.09274 4.06968 5.09347 4.667C5.32463 5.80045 5.38976 6.96148 5.28681 8.11367C5.69347 8.11367 5.95348 7.68034 6.18014 6.207C6.04691 5.78227 6.00009 5.33516 6.04246 4.89205C6.08482 4.44893 6.21551 4.01879 6.42681 3.627C6.75348 3.447 6.81348 3.30034 7.05348 3.627L7.19348 3.91367C7.03753 4.64496 6.99035 5.39527 7.05348 6.14034C7.19348 7.107 7.35348 7.04034 7.49348 8.007C7.54681 8.40034 7.16681 12.527 7.40681 13.2137C7.40681 13.2803 7.46681 13.247 7.52014 13.1737C7.79348 12.7403 8.39348 10.627 8.39348 10.807C8.96014 11.3803 8.58014 10.9137 9.02014 11.667C9.08513 11.8069 9.13864 11.9518 9.18014 12.1003L9.26014 13.3537V13.427C9.20623 13.7558 9.12369 14.0792 9.01348 14.3937L8.82681 14.967L8.58014 15.4737L8.33348 15.9003L8.06014 16.2603L7.79348 16.547L7.54681 16.727L7.46014 16.7603L7.10681 16.9403L6.75348 17.0537L6.34681 17.1203H5.88681L5.42014 17.0137C5.16481 16.973 4.91296 16.9128 4.66681 16.8337L4.36014 16.667L4.14014 16.5603V16.527V16.4003C3.51347 15.4337 3.13348 14.287 4.00681 13.067C4.12047 13.2203 4.24765 13.3631 4.38681 13.4937C5.20014 14.287 5.64014 14.2137 6.10014 13.7803C5.67934 13.6682 5.29724 13.443 4.99523 13.1293C4.69322 12.8155 4.48282 12.4251 4.38681 12.0003ZM5.36681 20.7803L4.90681 20.2803C4.67006 19.9996 4.48498 19.6791 4.36014 19.3337C4.24 19.009 4.14854 18.6743 4.08681 18.3337C3.99714 18.1236 3.96051 17.8946 3.98014 17.667C4.11553 17.7065 4.24379 17.7673 4.36014 17.847H4.44014L5.01347 18.0603L5.56014 18.2003L6.10014 18.2403L6.62014 18.2003L7.10681 18.0937L7.52014 17.9137H7.57348L8.00681 17.667L8.20014 17.487L8.39348 17.307L8.77348 16.8737L9.10014 16.3737L9.37348 15.8337L9.64014 15.167L9.86014 14.5003C9.91348 14.2137 10.0001 13.9603 10.0535 13.6737L10.1601 13.6403C10.3495 13.7895 10.5236 13.957 10.6801 14.1403C10.752 14.2343 10.8348 14.3193 10.9268 14.3937V14.6403L11.0068 15.6137V16.0803V16.507V16.9403V17.3337L10.9468 17.6937L10.8668 18.0537L10.7868 18.4137L10.7335 18.5203L10.6801 18.7337L10.5668 19.0203L10.4335 19.307L10.2935 19.5603L10.1335 19.8137L9.96681 20.027L9.78014 20.207L9.58681 20.4203L9.36681 20.567L9.15347 20.707L8.90681 20.8537L8.66014 20.927L8.38681 21.0337L8.08681 21.067L7.78681 21.1403H7.12014L6.79348 21.107L6.41348 21.0337L6.00014 20.9603L5.59348 20.8537L5.34681 20.7803H5.36681ZM9.48014 25.407C9.31348 25.3403 9.18014 25.267 8.98681 25.1937C8.46405 25.1135 7.9693 24.9051 7.54681 24.587C6.69289 23.9379 6.07102 23.0308 5.77348 22.0003H5.86014L6.26681 22.0737L6.67348 22.147H7.05348H7.79348L8.14681 22.0803L8.50014 22.007L8.80014 22.0003L9.12681 21.8937L9.42681 21.747L9.70014 21.567L10.0001 21.3337L10.2468 21.0803L10.4935 20.827L10.7135 20.5403L10.9001 20.2537L11.0935 19.9337L11.2535 19.5737L11.3935 19.1803L11.5268 18.8203L11.6401 18.387L11.7201 17.9603L11.8001 17.527V17.0603V16.5937V16.0937V15.587V15.4803C12.1001 15.4803 12.4001 15.447 12.6735 15.447L13.0535 16.5937L13.3535 17.6737L13.5735 18.6737L13.6535 19.1403L13.7135 19.607V20.0403V20.4737V20.867V21.2603L13.6535 21.6203L13.5735 21.9803L13.4935 22.3003L13.3868 22.627L13.2735 22.9137L13.1135 23.2003L12.9468 23.487L12.7601 23.7403L12.5401 23.9537L12.2935 24.2003L12.0468 24.3803L11.7468 24.6003L11.4201 24.7803L11.0668 24.9537L10.6868 25.1003H10.5801L10.2801 25.1737L9.84014 25.3203L9.38014 25.387L9.48014 25.407ZM10.6668 27.2403C10.5268 26.987 10.3668 26.7003 10.2001 26.3403L10.5535 26.2737L10.6668 26.2337L10.9935 26.127L11.4001 25.947L11.8068 25.767L12.1601 25.5537L12.5335 25.3337L12.8601 25.0803L13.1601 24.7937L13.4001 24.507L13.6468 24.1803L13.8668 23.827L14.0535 23.467L14.2201 23.0737L14.3535 22.6737L14.4668 22.2803L14.5468 21.8137L14.6001 21.387V20.9203V20.4537V19.947L14.5468 19.447L14.4935 18.947L14.4135 18.407L14.3001 17.867L14.1668 17.2937L14.0268 16.7537L13.6735 15.567L13.6201 15.4603C13.9673 15.5092 14.306 15.6056 14.6268 15.747L15.2001 16.107L15.4735 16.4337L15.8001 16.9003L16.0735 17.367L16.3468 17.8337L16.5935 18.3003L16.7801 18.8003L16.9468 19.3003L17.1068 19.807L17.2135 20.307L17.3001 20.847V20.9203L17.3535 21.347V21.8537V22.3537V22.8203L17.3335 23.3337L17.2535 23.8003L17.1401 24.267L17.0068 24.7003L16.8401 25.127L16.6268 25.5603L16.4068 25.9537L16.1601 26.347L15.8601 26.707L15.5601 27.0337L15.2068 27.3537L14.8535 27.6403L14.4468 27.8937L14.0068 28.107L13.5468 28.327H13.4401V28.107C11.8268 28.287 11.2601 28.1803 10.6601 27.247L10.6668 27.2403ZM23.2668 46.407L22.9335 46.767L22.6401 47.0537H22.6068L22.2535 47.307L21.8735 47.5603L21.4935 47.7737L21.0868 47.9537L20.6468 48.0603L20.2135 48.1337L19.7735 48.2003H19.3335L18.9001 48.1337L18.4335 48.0603L17.9735 47.9137L17.5068 47.7403L17.3335 47.7337L17.0068 47.5537L16.5868 47.3337L16.1268 47.007L15.7201 46.647L15.2801 46.2537L14.9001 45.787L14.4935 45.287L14.1401 44.747L13.7868 44.1337L13.4868 43.467L13.2668 43.0003C12.925 41.5131 13.0011 39.9603 13.4868 38.5137L13.8135 38.2203L14.1668 38.8003L14.7068 39.467L15.2801 40.0737L15.9468 40.647L16.6601 41.147L17.3668 41.547L17.4201 41.5803L18.2068 41.9737L19.0268 42.3337L19.9001 42.6203L20.7735 42.8737L21.6668 43.0537L22.5668 43.1603L22.6535 43.1937L23.4935 43.267H24.5268V43.447L24.4201 44.0603L24.3668 44.2003L24.2601 44.5937L24.0668 45.1003L23.8201 45.567L23.5335 46.0003L23.2668 46.4337V46.407ZM23.3335 51.3337C23.5468 51.5137 23.7935 51.6603 24.0401 51.8403C24.1201 51.8737 24.2335 51.947 24.3135 51.9803C24.4561 52.0829 24.6105 52.168 24.7735 52.2337L25.2668 52.4137H25.3335L25.7668 52.5603L26.2868 52.627H26.8335H27.3468L27.8935 52.4803L28.4401 52.3403C28.448 52.3265 28.4598 52.3152 28.474 52.3081C28.4883 52.301 28.5043 52.2983 28.5201 52.3003C28.7668 52.1937 29.0135 52.087 29.2868 51.947C29.5841 51.7674 29.8652 51.5622 30.1268 51.3337C30.2068 51.3337 30.2935 51.227 30.3735 51.1937C30.3735 51.947 30.3735 52.7003 30.3735 53.4537L30.2335 53.707L29.9935 54.067L29.7468 54.387L29.4735 54.6737L29.2268 54.927L28.9268 55.1737L28.6535 55.3937L28.5735 55.467L28.3868 55.607L28.0868 55.7537L27.7868 55.8937L27.5135 56.0003L27.2135 56.1137L26.9135 56.1803L26.6401 56.2203H26.0668L25.7935 56.147H25.4935L25.3335 56.0603L25.2001 55.987L24.9268 55.8803L24.6801 55.7403L24.4335 55.5937L24.3001 55.487L24.1935 55.4137L24.0001 55.2003L23.7801 54.947L23.5601 54.7003L23.3735 54.407L23.1801 54.087L23.0201 53.7603L22.8535 53.407L22.7201 53.0137L22.6668 52.667L22.6335 52.5603L22.5535 52.2737L22.6068 52.2003C22.6132 52.1587 22.6345 52.1207 22.6668 52.0937L22.9068 51.5537C22.9601 51.4137 23.0468 51.2337 23.1001 51.0537L23.3335 51.3337ZM12.9935 76.3737C12.7419 76.7537 12.394 77.0601 11.9852 77.2616C11.5764 77.4631 11.1214 77.5524 10.6668 77.5203C9.61332 77.3335 8.6272 76.8738 7.80681 76.187C8.5146 77.1611 9.51752 77.8812 10.6668 78.2403C11.1068 78.3174 11.5544 78.342 12.0001 78.3137C11.6726 78.5453 11.2872 78.6815 10.8868 78.707C10.8001 78.707 10.7201 78.747 10.6401 78.747C10.4172 78.7547 10.1939 78.7413 9.97348 78.707C8.96759 78.4333 8.08404 77.8271 7.46681 76.987C7.20992 76.6307 6.99935 76.2431 6.84014 75.8337C6.7202 75.4894 6.68141 75.1221 6.72681 74.7603C6.88504 74.1403 7.13442 73.5472 7.46681 73.0003C7.59308 72.7668 7.738 72.5439 7.90014 72.3337C8.57402 71.2963 9.15835 70.2035 9.64681 69.067C9.80681 68.6337 10.0535 68.2403 10.1868 67.7737V67.6337L10.5668 67.9203C10.8203 68.0956 11.0932 68.241 11.3801 68.3537C11.6963 68.4902 12.0243 68.5974 12.3601 68.6737C12.5801 68.7137 12.7735 68.7137 12.9601 68.747C12.5875 69.9422 12.4053 71.1885 12.4201 72.4403C12.5268 73.107 12.6068 73.627 12.7468 74.2737C12.8868 74.9203 13.2601 75.927 12.8801 76.3537L12.9935 76.3737ZM13.6601 67.707H13.4001C12.9177 67.7151 12.438 67.6314 11.9868 67.4603C11.8615 67.432 11.742 67.3823 11.6335 67.3137C11.3506 67.1918 11.0841 67.035 10.8401 66.847C10.7704 66.7998 10.7113 66.7385 10.6668 66.667C10.5031 66.5316 10.3472 66.387 10.2001 66.2337L10.0535 66.0003L9.72681 65.5737C9.05962 64.6808 8.68893 63.6014 8.66681 62.487C8.73104 61.5573 8.98276 60.6502 9.40681 59.8203L9.46014 59.7137V59.7537L9.76014 60.5403L10.1135 61.2603L10.3068 61.5803L10.4935 61.867L10.6335 62.087L10.7135 62.1537L10.9335 62.4403L11.1468 62.6937L11.3935 62.947L11.6401 63.127L11.8868 63.3403L12.1601 63.5203L12.4268 63.6603L12.7268 63.807L13.0268 63.9137L13.6268 64.0937L14.2535 64.167H14.9201H15.6335L16.3668 64.0203C16.4136 64.0225 16.4599 64.0109 16.5001 63.987C16.0935 66.5003 14.5001 67.5003 13.6135 67.6803L13.6601 67.707ZM17.6601 62.2203C17.5747 62.3188 17.4733 62.4022 17.3601 62.467C17.1159 62.5744 16.8908 62.7208 16.6935 62.9003L16.3068 63.007L15.6401 63.1137L15.0135 63.1537L14.3868 63.1137L13.8468 63.047L13.3001 62.9003L12.7735 62.667L12.3401 62.3803L11.9068 62.0537L11.5201 61.6603L11.1401 61.1537L10.8135 60.6203L10.6801 60.367L10.5135 60.0003L10.2401 59.287L10.0001 58.5337L9.86014 58.1803L9.70014 57.747C9.58451 56.5954 9.72334 55.4324 10.1068 54.3403L10.6801 53.4737L10.9535 53.0803V53.6203L11.0335 54.1603L11.1135 54.6603L11.2535 55.1603L11.4135 55.6337L11.5801 56.1003L11.7935 56.527L12.0135 56.9203L12.2601 57.2803L12.5335 57.6403L12.8068 57.927L13.1001 58.2137L13.4335 58.467L13.7601 58.6803L14.1135 58.8603L14.4668 59.0403L14.8468 59.147L15.2268 59.2203H15.6401H16.4268L16.8335 59.147L17.2468 59.007H17.3335L17.6868 58.8603L18.0935 58.687L18.5068 58.467L18.9401 58.1803C19.0042 59.6325 18.5293 61.0571 17.6068 62.1803L17.6601 62.2203ZM18.9935 56.8337C18.8681 56.9873 18.7322 57.1321 18.5868 57.267L18.2001 57.5137L17.8201 57.7337L17.4668 57.9137H17.3601L17.1135 57.987L16.7335 58.0937L16.3801 58.167H15.7135L15.3868 58.127L15.0601 58.0603L14.7268 57.987L14.4335 57.8403L14.1601 57.7003L13.8601 57.5203L13.5935 57.3337L13.3335 57.1003L13.1135 56.8137L12.9001 56.567L12.6668 56.2403L12.4735 55.9137L12.3135 55.5603L12.1735 55.2003L12.0401 54.767L11.9335 54.3737L11.8468 53.947L11.7935 53.4737V52.9737V52.4737V51.967V51.9003L12.3668 51.3603L12.4468 51.467L12.9135 52.1337L13.4001 52.747L13.8935 53.2803L14.4401 53.7137L14.9801 54.107L15.5801 54.4337L16.1801 54.647L16.8468 54.827L17.3935 54.9003H18.1801L18.8935 54.827L19.6001 54.687L19.9535 54.5737C19.6801 55.327 19.4868 56.3337 19.0268 56.8003L18.9935 56.8337ZM21.0335 52.7403C20.8636 52.9072 20.6832 53.0631 20.4935 53.207L20.3535 53.2803L20.0268 53.4603L19.7535 53.5337L19.0868 53.7137L18.4201 53.8203H17.7935H17.3601H17.1935L16.6268 53.7137L16.0801 53.5337L15.5601 53.3137L15.0735 52.9937L14.5801 52.6337L14.1201 52.207L13.6801 51.7003L13.2735 51.127L12.8668 50.4603L12.4801 49.747L12.2935 49.387L12.0468 48.7203C11.9213 47.6063 11.9867 46.479 12.2401 45.387C12.3599 44.9083 12.5297 44.4435 12.7468 44.0003V44.0403L13.1001 44.7537L13.4868 45.4203L13.8935 46.0337L14.3001 46.567L14.7668 47.0737L15.2268 47.5403L15.6935 47.9337L16.1801 48.2937L16.7001 48.5803L17.1868 48.8337H17.3268L17.7068 48.9737L18.2268 49.1537L18.7401 49.227L19.2601 49.3003H19.7801L20.2935 49.227L20.7868 49.1537L21.2735 49.0137L21.7401 48.8003L22.2001 48.5803L22.6135 48.2937L22.6935 48.2203C22.6804 48.2931 22.6804 48.3676 22.6935 48.4403C22.7001 48.6829 22.6912 48.9256 22.6668 49.167V49.2803C22.6068 49.6337 22.5268 49.947 22.4468 50.2803C22.3945 50.4884 22.33 50.6932 22.2535 50.8937C22.1641 51.1249 22.0548 51.348 21.9268 51.5603C21.8201 51.7933 21.6929 52.0164 21.5468 52.227C21.3925 52.4034 21.2278 52.5704 21.0535 52.727L21.0335 52.7403ZM28.5535 70.0737C29.3735 70.7403 30.2735 71.327 31.0601 72.0737C31.2144 72.3863 31.2899 72.7319 31.2801 73.0803C31.1401 74.047 29.6468 74.6203 28.5535 74.767C28.2038 74.839 27.8431 74.839 27.4935 74.767C27.3268 75.1603 27.8468 75.2737 28.5535 75.2737C29.3553 75.2641 30.1469 75.0917 30.8801 74.767C30.4311 75.2476 29.8765 75.6173 29.2601 75.847C29.0229 75.8504 28.7864 75.875 28.5535 75.9203C27.9296 76.0078 27.2939 75.908 26.7268 75.6337C26.4001 75.2003 26.0601 74.807 25.7201 74.3403C25.6135 74.1203 25.4735 73.907 25.3668 73.6737C25.0135 73.1003 24.7001 72.527 24.3335 71.9137C24.2807 71.8107 24.2158 71.7145 24.1401 71.627C23.5403 70.958 23.2183 70.0853 23.2401 69.187C23.2331 68.2109 23.4283 67.2439 23.8135 66.347L23.9801 66.067C24.1135 66.067 24.2268 66.1737 24.3335 66.207L24.7935 66.3137C24.9821 66.3545 25.174 66.379 25.3668 66.387C25.4468 66.387 25.5068 66.387 25.5868 66.387C26.0982 66.3731 26.6081 66.3264 27.1135 66.247C27.1135 66.387 27.1935 66.567 27.2201 66.6737C25.6135 67.0003 25.5601 67.9337 26.1868 68.0737C26.4868 68.147 26.8535 67.827 27.5201 67.6803C27.5524 67.9488 27.615 68.2127 27.7068 68.467C27.4668 68.467 25.9135 69.367 26.3735 69.9803C26.3735 69.9803 27.8735 69.1537 27.9535 69.4403C28.1468 69.6203 28.3335 69.8003 28.5535 69.9803V70.0737ZM28.5535 64.0737C28.0917 64.536 27.5796 64.9452 27.0268 65.2937C26.5602 65.3788 26.0877 65.4278 25.6135 65.4403C25.5335 65.4403 25.4468 65.4003 25.3668 65.4003C25.0907 65.39 24.8172 65.343 24.5535 65.2603V65.187C24.4666 65.1823 24.3821 65.1572 24.3068 65.1137C23.8199 64.9414 23.4123 64.5978 23.1601 64.147C22.9289 63.9225 22.7591 63.6425 22.6668 63.3337C22.5527 63.0686 22.47 62.7912 22.4201 62.507C22.2273 61.562 22.1445 60.5978 22.1735 59.6337L22.2268 59.747L22.6668 60.247L22.7468 60.3537L23.2335 60.8603L23.7801 61.287L24.3001 61.647H24.3535L24.8401 61.9003L25.1135 62.007L25.3868 62.0803L25.6601 62.147H25.9335L26.2335 62.187L26.5068 62.147L27.0801 62.0803L27.3735 62.007L27.9468 61.787L28.5201 61.467L29.0935 61.0737L29.5268 60.7137C29.5268 62.2537 29.2535 63.187 28.5201 64.047L28.5535 64.0737ZM30.0001 58.787L29.5335 59.4537C29.3619 59.6208 29.1816 59.7788 28.9935 59.927L28.5535 60.247L28.4468 60.3203L27.9535 60.6403L27.4401 60.8603L26.9468 61.0003L26.4601 61.0737H26.0001L25.5401 61.0003H25.3735L25.0735 60.8937L24.6001 60.667L24.3268 60.487L24.1335 60.3803L23.7001 60.0003L23.2335 59.567L22.7735 59.027L22.6401 58.8137L22.3401 58.387L22.1735 58.1337C21.6001 57.3803 21.4135 55.407 21.6535 53.467C21.7401 53.3603 21.8201 53.287 21.9001 53.1803L21.9801 53.4003L22.1468 53.867L22.3068 54.2937L22.5268 54.727L22.6401 54.907L22.7468 55.087L22.9668 55.447L23.2335 55.767L23.4801 56.0537L23.7801 56.307L24.0535 56.5203L24.3268 56.7003L24.6535 56.847L24.9535 56.987L25.2801 57.1003H25.3335L25.6068 57.167L25.9601 57.2403H26.6268L26.9535 57.167L27.3068 57.1003L27.6335 56.987L27.9935 56.8803L28.3201 56.7003L28.5068 56.5937L28.6735 56.527L29.0001 56.307L29.3001 56.0603L29.6268 55.767L29.9268 55.447L30.2268 55.1203L30.4668 54.8337C30.6531 55.3044 30.7634 55.8017 30.7935 56.307C30.7874 57.1951 30.5106 58.0602 30.0001 58.787ZM30.3268 49.8137C30.0681 50.0803 29.7943 50.3318 29.5068 50.567C29.2665 50.7428 29.0123 50.8988 28.7468 51.0337C28.6902 51.0752 28.6234 51.1006 28.5535 51.107C28.3668 51.1803 28.2001 51.2537 28.0068 51.3203C27.8135 51.387 27.5468 51.4337 27.3001 51.5003C27.0535 51.567 26.8401 51.5403 26.5935 51.5403C26.3697 51.5331 26.1468 51.5086 25.9268 51.467C25.7335 51.467 25.5468 51.3603 25.3535 51.3203C25.3535 51.3203 25.3001 51.3203 25.2468 51.3203C25.0268 51.2137 24.8068 51.107 24.6201 51.0003C24.5106 50.9579 24.4091 50.8971 24.3201 50.8203C24.2135 50.747 24.0735 50.6737 23.9668 50.6003C23.7468 50.4203 23.5535 50.247 23.3401 50.0603C23.3278 50.0281 23.3278 49.9925 23.3401 49.9603C23.3935 49.6003 23.4468 49.2403 23.4735 48.8803C23.5179 48.4151 23.5357 47.9476 23.5268 47.4803L23.8001 47.1937L24.0468 46.8337C24.1268 46.8737 24.2135 46.9403 24.2935 46.9803C24.3735 47.0203 24.4535 47.087 24.5401 47.1603L25.0001 47.407L25.3268 47.5137L25.4935 47.587L26.0068 47.6937L26.5268 47.767L27.0468 47.807L27.5601 47.7337L28.1068 47.627L28.5135 47.4803L28.6535 47.407L29.1935 47.1603L29.7668 46.8337L30.3135 46.4403L30.8868 45.9737L31.4268 45.4337C31.483 45.3976 31.5307 45.3498 31.5668 45.2937C31.6892 46.1 31.6383 46.9232 31.4176 47.7083C31.1969 48.4934 30.8114 49.2225 30.2868 49.847L30.3268 49.8137ZM32.5001 40.267C32.4719 41.0472 32.3419 41.8204 32.1135 42.567C31.9801 42.9603 31.8468 43.3537 31.7068 43.7137L31.4935 43.967C31.2468 44.2537 30.9735 44.5403 30.7001 44.827C30.4268 45.1137 30.2068 45.2603 29.9401 45.4937C29.6981 45.6802 29.4418 45.8474 29.1735 45.9937C28.9806 46.1309 28.7698 46.2409 28.5468 46.3203C28.5468 46.3203 28.4668 46.3203 28.4401 46.387L27.7335 46.607L27.0668 46.7137C26.8268 46.7137 26.6068 46.6803 26.4001 46.6803C26.1935 46.6803 25.9668 46.567 25.7335 46.5337C25.622 46.4707 25.5034 46.4215 25.3801 46.387C25.2926 46.3336 25.2013 46.2868 25.1068 46.247C24.9468 46.1737 24.7801 46.067 24.5935 45.9603L24.7535 45.6337L24.9735 45.027L25.1601 44.3603L25.3001 43.6937L25.3801 43.227L26.2001 43.1203L27.0668 42.9737L27.9401 42.7603L28.5668 42.5403L28.7601 42.4737L29.5201 42.1137L30.2868 41.6803L30.9535 41.2137L31.5801 40.6403L32.1535 40.0337L32.5068 39.527V40.267H32.5001ZM32.9601 35.6003L32.8535 36.4603L32.6668 37.2203L32.3668 37.9337L32.0135 38.6003L31.5801 39.207L31.0868 39.747L30.5135 40.247L29.8868 40.6803L29.2201 41.0737L28.5535 41.3603L28.5001 41.4003L27.7401 41.647L26.9201 41.867L26.0935 42.0003L25.3335 42.1337H25.2268L24.3535 42.1737H23.5068L22.6668 42.1003L21.7935 41.9537L20.9468 41.7737L20.1001 41.5603L19.2868 41.2737L18.4935 40.9537L17.7601 40.5537L17.3335 40.3403L17.0068 40.1603L16.3401 39.6937L15.7401 39.1937L15.2268 38.667L14.7668 38.0603L14.4668 37.627L14.5201 37.5537L13.9468 35.907C13.7314 34.9283 13.6952 33.9186 13.8401 32.927L13.9735 33.1403L14.7068 33.8937L15.4735 34.5603L16.3201 35.1737L17.1868 35.747L17.3535 35.8203L18.0868 36.2137L19.0401 36.607L19.9935 36.967L21.0001 37.2203L22.0135 37.4337L22.6401 37.507L23.0201 37.5737L24.0268 37.6137H24.3268H25.0335H25.3601L26.0268 37.5737L27.0068 37.4337L27.9601 37.2537L28.5601 37.0737L28.8868 36.967L29.7468 36.667L30.5935 36.267L31.3801 35.8003L32.1135 35.3003L32.7801 34.687L32.9668 34.4737V34.6537V35.587L32.9601 35.6003ZM32.8001 33.2003L32.2801 33.807L31.6801 34.347L31.0135 34.8137L30.3068 35.247L29.5135 35.6403L28.6668 35.927H28.5268L27.7935 36.147L26.8668 36.327L25.9401 36.467H25.3401H24.0068H23.0268L22.6668 36.427L22.1201 36.3603L21.1668 36.1803L20.2135 35.8937L19.2868 35.567L18.3868 35.207L17.5401 34.7403L17.3335 34.667L16.6668 34.2737L15.9001 33.7003L15.1935 33.0337L14.5268 32.3137L14.1201 31.7737C13.8772 31.0001 13.6944 30.2088 13.5735 29.407L13.7935 29.3337L14.3068 29.1203L14.8001 28.867L15.2601 28.5803L15.7001 28.2603L16.0801 27.9003L16.4335 27.507L16.5135 27.4003L16.8135 27.7537L17.3601 28.2203L17.4135 28.2937L18.0801 28.7603L18.7868 29.1937L19.5535 29.5537L20.3668 29.8403L21.2135 30.087L22.0601 30.2337L22.6335 30.307L22.9601 30.3403L23.8268 30.4137H24.7335L25.3601 30.3737H25.6335L26.5335 30.267L27.4335 30.1203L28.2735 29.907L28.5468 29.8003L29.1201 29.6203L29.9135 29.3003L30.6735 28.9003L31.4068 28.4737L32.0735 27.967L32.6668 27.3337L33.2135 26.727L33.6468 26.1137L33.7601 26.4737L33.8135 26.5803L34.0068 27.5137L34.1401 28.5203V29.4537L34.0601 30.3137L33.8668 31.1003L33.8135 31.2803L33.5935 31.8603L33.2401 32.527L32.7801 33.1937L32.8001 33.2003ZM36.7468 39.3737L36.5001 39.447H36.2268L35.7668 39.3337L35.6868 39.3003C35.2801 39.0856 34.9109 38.8064 34.5935 38.4737L34.2401 38.147L33.8335 37.7537L33.4801 37.4337L33.6401 36.767L33.7268 36.1937C33.7464 36.1929 33.7659 36.196 33.7842 36.2029C33.8025 36.2098 33.8193 36.2202 33.8335 36.2337H34.3801L34.8935 36.1203C35.0868 36.0537 35.2468 35.9803 35.4135 35.907L35.9001 35.587L36.3935 35.1537C36.4219 35.1117 36.4581 35.0755 36.5001 35.047C36.6011 34.9095 36.7101 34.7781 36.8268 34.6537C36.9668 34.4337 37.1001 34.2603 37.2401 34.0403C37.2935 33.9337 37.3468 33.8603 37.3735 33.7937C37.4538 33.6643 37.5272 33.5308 37.5935 33.3937L37.7535 33.0737C37.8113 32.9699 37.8582 32.8604 37.8935 32.747C38.1117 32.85 38.3213 32.9703 38.5201 33.107C38.8371 33.3371 39.0896 33.6447 39.2535 34.0003C39.2535 34.0337 39.2535 34.067 39.3068 34.107C39.6178 35.0541 39.599 36.0786 39.2535 37.0137C39.247 37.0538 39.2284 37.091 39.2001 37.1203L39.1468 37.3337L39.0935 37.4403L38.7335 38.0003L38.5201 38.2137L38.3268 38.4337L37.9468 38.7937L37.5935 39.007H37.5401L37.3735 39.1137L37.1535 39.227L36.7468 39.3337V39.3737ZM37.5935 42.387C37.5935 42.4203 37.5401 42.4937 37.5135 42.527C37.4868 42.5603 37.4268 42.6403 37.3735 42.6737C37.3201 42.707 37.1535 42.7803 37.1001 42.6737C37.0468 42.567 37.1001 42.3203 37.2401 42.1403C37.2741 42.0828 37.3194 42.0329 37.3735 41.9937C37.4535 41.9203 37.5401 41.887 37.5935 41.9203C37.6468 41.9537 37.6468 41.9203 37.6468 41.9603C37.6468 42.0003 37.6468 42.207 37.5935 42.3537V42.387ZM38.6268 43.427C38.5864 43.4573 38.5505 43.4932 38.5201 43.5337C38.4473 43.5805 38.3601 43.5996 38.2744 43.5873C38.1887 43.5751 38.1102 43.5324 38.0535 43.467C37.9799 43.3284 37.9415 43.1739 37.9415 43.017C37.9415 42.8601 37.9799 42.7056 38.0535 42.567C38.1935 42.387 38.3801 42.4603 38.5468 42.567C38.6001 42.6403 38.6801 42.6737 38.7068 42.707C38.768 42.8195 38.7955 42.9472 38.786 43.0748C38.7766 43.2025 38.7306 43.3248 38.6535 43.427H38.6268ZM39.5001 44.667C39.4282 44.7609 39.3454 44.846 39.2535 44.9203C39.0601 45.067 38.8735 45.1003 38.7935 44.9937C38.7135 44.887 38.7935 44.4203 39.0335 44.0603C39.1201 43.987 39.1735 43.8803 39.2535 43.847C39.4468 43.667 39.6335 43.627 39.7468 43.7337C39.8601 43.8403 39.7468 44.3137 39.5001 44.667ZM42.2801 43.8803C41.8135 44.9203 41.0001 44.0937 40.3735 43.4137C40.2689 43.1862 40.1084 42.9889 39.9068 42.8403C39.7135 42.6603 39.4735 42.447 39.2401 42.227C39.1031 42.0533 38.993 41.8601 38.9135 41.6537C38.7731 41.6051 38.6371 41.5449 38.5068 41.4737C38.1406 41.3445 37.819 41.1132 37.5801 40.807C37.519 40.7303 37.4857 40.6351 37.4857 40.537C37.4857 40.4389 37.519 40.3437 37.5801 40.267C37.6796 40.1508 37.7993 40.0537 37.9335 39.9803C38.0135 39.9803 38.2601 39.767 38.3401 39.7337L38.5068 39.587L38.5868 39.5137L38.8335 39.3003L39.0468 39.047L39.2401 38.8003L39.2935 38.7603C39.5163 38.8529 39.7198 38.9863 39.8935 39.1537C40.2007 39.3781 40.4765 39.6427 40.7135 39.9403C41.4372 40.8076 41.9831 41.8089 42.3201 42.887C40.2201 40.447 38.8601 39.047 42.2668 43.927L42.2801 43.8803Z" fill="#1D1D1B"/>
<path fill-rule="evenodd" clip-rule="evenodd" d="M25.9329 10.7338H25.3329C24.9795 10.7338 24.6662 10.7338 24.2995 10.7338C23.7262 10.7338 23.1795 10.7671 22.6129 10.7671H22.5529C22.3662 10.8405 22.1995 10.7338 22.0929 10.4805C21.9854 10.9337 21.7906 11.3617 21.5195 11.7405C21.677 11.7854 21.8448 11.7779 21.9976 11.7189C22.1503 11.66 22.2798 11.5529 22.3662 11.4138C22.4462 11.4871 22.5262 11.5205 22.6129 11.5938C22.6376 11.6311 22.6758 11.6574 22.7195 11.6671C22.9441 11.7387 23.1516 11.8555 23.3293 12.0102C23.507 12.165 23.6512 12.3545 23.7529 12.5671C23.8219 12.6399 23.9083 12.6939 24.0039 12.7242C24.0995 12.7545 24.2012 12.7601 24.2995 12.7405C24.507 12.7037 24.698 12.6035 24.8462 12.4538C24.9338 12.1857 25.1042 11.9523 25.3329 11.7871C25.6457 11.5193 25.9933 11.2951 26.3662 11.1205C26.4262 10.9405 26.2595 10.8005 25.9062 10.6938L25.9329 10.7338ZM24.3529 12.1338C23.9995 12.0938 23.1795 11.4138 23.5062 11.3805H24.3529L25.1395 11.3338C25.4662 11.3338 24.6795 12.1271 24.3529 12.1271V12.1338Z" fill="#1D1D1B"/>
<path fill-rule="evenodd" clip-rule="evenodd" d="M25.3337 9.68699C26.0004 9.68699 26.587 8.54033 26.587 7.18033C26.587 5.82033 26.0404 4.66699 25.3337 4.66699C24.9004 4.66699 24.5204 5.06033 24.3004 5.70699C24.1264 6.17826 24.0427 6.67808 24.0537 7.18033C24.0454 7.6802 24.129 8.17735 24.3004 8.64699C24.5204 9.26033 24.9004 9.68699 25.3337 9.68699ZM25.3337 5.42033C25.8004 5.42033 26.1537 6.24699 26.1537 7.24699C26.1833 7.63792 26.1311 8.03072 26.0004 8.40033C26.0137 8.26733 26.0137 8.13332 26.0004 8.00033C26.0004 7.10699 25.7004 6.34699 25.3337 6.34699C24.967 6.34699 24.667 7.10699 24.667 8.00033C24.6716 8.18139 24.6894 8.36187 24.7204 8.54033C24.576 8.13605 24.5038 7.70958 24.507 7.28033C24.507 6.28033 24.8604 5.45366 25.3204 5.45366L25.3337 5.42033Z" fill="#1D1D1B"/>
<path fill-rule="evenodd" clip-rule="evenodd" d="M22.5797 9.68699H22.6663C23.333 9.62033 23.8597 8.50699 23.8597 7.18033C23.8597 5.85366 23.333 4.74033 22.6663 4.66699H22.6063C21.873 4.66699 21.333 5.78033 21.333 7.18033C21.333 8.58033 21.9063 9.68699 22.613 9.68699H22.5797ZM22.5797 5.42033H22.6663C23.0997 5.42033 23.4263 6.28033 23.4263 7.24699C23.4432 7.64072 23.3773 8.03361 23.233 8.40033C23.2487 8.25631 23.2487 8.11101 23.233 7.96699C23.233 7.10699 22.9663 6.38699 22.6397 6.31366H22.5797C22.2263 6.31366 21.953 7.07366 21.953 7.96699C21.9397 8.14675 21.9397 8.32724 21.953 8.50699C21.8087 8.10272 21.7365 7.67624 21.7397 7.24699C21.7397 6.24699 22.093 5.42033 22.553 5.42033H22.5797Z" fill="#1D1D1B"/>
<path fill-rule="evenodd" clip-rule="evenodd" d="M11.3334 71.2798C11.1334 71.1749 10.9235 71.09 10.7067 71.0265C10.5181 70.9857 10.3263 70.9611 10.1334 70.9531C9.94008 70.9531 9.64008 71.0265 9.61341 71.2798C9.61094 71.4268 9.64424 71.5721 9.71044 71.7033C9.77664 71.8346 9.87375 71.9478 9.99341 72.0331C10.2097 72.1753 10.4522 72.2728 10.7067 72.3198C10.8685 72.3363 11.0316 72.3363 11.1934 72.3198C11.4401 72.3198 11.7667 72.2131 11.8201 71.9264C11.8734 71.6398 11.5467 71.3865 11.3334 71.2598V71.2798Z" fill="#1D1D1B"/>
<path fill-rule="evenodd" clip-rule="evenodd" d="M11.7404 69.3736C11.4078 69.2194 11.047 69.1354 10.6804 69.127C10.6271 69.127 10.5404 69.127 10.4604 69.127C10.3349 69.1516 10.2192 69.2119 10.127 69.3005C10.0348 69.3892 9.97 69.5025 9.94043 69.627C9.95614 69.7502 10.0021 69.8677 10.0742 69.9689C10.1463 70.0701 10.2424 70.1519 10.3538 70.2069L10.6804 70.3136C10.987 70.4166 11.312 70.4529 11.6338 70.4203C11.7674 70.4165 11.896 70.3687 11.9997 70.2844C12.1034 70.2 12.1763 70.0837 12.2071 69.9536C12.2071 69.7003 11.9338 69.447 11.7404 69.3403V69.3736Z" fill="#1D1D1B"/>
<path fill-rule="evenodd" clip-rule="evenodd" d="M4.52033 7.99999C4.47381 7.96404 4.41861 7.94104 4.36033 7.93332C4.36033 7.89332 4.28033 7.89332 4.22033 7.93332C4.06033 7.93332 3.78699 7.85999 3.70699 8.07332C3.62699 8.28665 3.78699 8.43332 3.92033 8.61332C3.98033 8.68665 4.14033 8.68665 4.22033 8.71999C4.30033 8.75332 4.33366 8.86665 4.36033 8.93332C4.38699 8.99999 4.41366 9.00665 4.44033 9.00665C4.63366 9.04665 5.04033 9.11332 5.04033 8.86665C5.09366 8.50665 4.74033 8.25332 4.52033 7.99999Z" fill="#1D1D1B"/>
</g>
<defs>
<clipPath id="clip0_601_2370">
<rect width="200" height="80" fill="white"/>
</clipPath>
</defs>
</svg>
