<svg width="63" height="21" viewBox="0 0 63 21" fill="none" xmlns="http://www.w3.org/2000/svg">
<g opacity="0.5">
<path d="M34.6974 10.5H37.0467L33.7946 14.4471L37.6622 18.9006H35.0359L31.5479 14.8294V18.9006H29.4448V10.5H31.5479V14.3748L34.6974 10.5Z" fill="#A6ADB7"/>
<path d="M43.2629 18.9006H41.0864L44.7554 10.5H46.9733L50.6734 18.9006H48.5073L45.8747 12.564L45.0456 14.5764L43.2629 18.9006Z" fill="#A6ADB7"/>
<path d="M61.0178 10.5H62.9986V18.9006H61.2139L56.7522 13.6825V18.9006H54.7812V10.5H56.5365L61.0178 15.7387V10.5Z" fill="#A6ADB7"/>
<path d="M16.5625 21H15.7348H6.47951H5.93607H0L11.1615 0L22.3815 21H16.5625ZM8.76197 16.094H13.4523L11.1113 11.0427L8.76197 16.094Z" fill="#A6ADB7"/>
<path d="M33.7293 6.00013L33.7228 3.28628L32.3917 5.52197H31.9201L30.5954 3.34444V6.00013H29.6133V1.47705H30.4791L32.1721 4.28782L33.8391 1.47705H34.6985L34.7114 6.00013H33.7293Z" fill="#A6ADB7"/>
<path d="M39.0864 5.0309H36.9864L36.5858 6.00013H35.5132L37.5292 1.47705H38.563L40.5855 6.00013H39.487L39.0864 5.0309ZM38.7569 4.23613L38.0396 2.50444L37.3224 4.23613H38.7569Z" fill="#A6ADB7"/>
<path d="M41.3778 1.47705H43.4326C43.9237 1.47705 44.3566 1.57182 44.7314 1.76136C45.1104 1.94659 45.4034 2.20936 45.6101 2.54967C45.8212 2.88997 45.9267 3.28628 45.9267 3.73859C45.9267 4.1909 45.8212 4.5872 45.6101 4.92751C45.4034 5.26782 45.1104 5.53274 44.7314 5.72228C44.3566 5.90751 43.9237 6.00013 43.4326 6.00013H41.3778V1.47705ZM43.3809 5.14074C43.8332 5.14074 44.1929 5.01582 44.46 4.76597C44.7314 4.51182 44.8671 4.16936 44.8671 3.73859C44.8671 3.30782 44.7314 2.96751 44.46 2.71767C44.1929 2.46351 43.8332 2.33644 43.3809 2.33644H42.4246V5.14074H43.3809Z" fill="#A6ADB7"/>
<path d="M50.5414 5.16013V6.00013H47.0392V1.47705H50.4574V2.31705H48.0795V3.2992H50.1795V4.11336H48.0795V5.16013H50.5414Z" fill="#A6ADB7"/>
<path d="M57.1716 3.64813C57.4301 3.72997 57.6325 3.86782 57.779 4.06167C57.9254 4.2512 57.9987 4.48597 57.9987 4.76597C57.9987 5.16228 57.8436 5.46813 57.5334 5.68351C57.2276 5.89459 56.7796 6.00013 56.1894 6.00013H53.8504V1.47705H56.0602C56.6116 1.47705 57.0337 1.58259 57.3267 1.79367C57.6239 2.00474 57.7725 2.2912 57.7725 2.65305C57.7725 2.87274 57.7187 3.06874 57.611 3.24105C57.5076 3.41336 57.3611 3.54905 57.1716 3.64813ZM54.8907 2.26536V3.33151H55.931C56.1894 3.33151 56.3854 3.28628 56.519 3.19582C56.6525 3.10536 56.7193 2.97182 56.7193 2.7952C56.7193 2.61859 56.6525 2.4872 56.519 2.40105C56.3854 2.31059 56.1894 2.26536 55.931 2.26536H54.8907ZM56.1119 5.21182C56.3876 5.21182 56.5944 5.16659 56.7322 5.07613C56.8744 4.98567 56.9454 4.84567 56.9454 4.65613C56.9454 4.28136 56.6676 4.09397 56.1119 4.09397H54.8907V5.21182H56.1119Z" fill="#A6ADB7"/>
<path d="M61.1907 4.39767V6.00013H60.1439V4.38474L58.3928 1.47705H59.5042L60.7125 3.48659L61.9208 1.47705H62.9482L61.1907 4.39767Z" fill="#A6ADB7"/>
</g>
</svg>
