<svg width="21" height="21" viewBox="0 0 21 21" fill="none" xmlns="http://www.w3.org/2000/svg">
<path fill-rule="evenodd" clip-rule="evenodd" d="M9.70833 2C5.45114 2 2 5.45114 2 9.70833C2 13.9655 5.45114 17.4167 9.70833 17.4167C13.9655 17.4167 17.4167 13.9655 17.4167 9.70833C17.4167 5.45114 13.9655 2 9.70833 2ZM0 9.70833C0 4.34657 4.34657 0 9.70833 0C15.0701 0 19.4167 4.34657 19.4167 9.70833C19.4167 15.0701 15.0701 19.4167 9.70833 19.4167C4.34657 19.4167 0 15.0701 0 9.70833Z" fill="#292D32"/>
<path fill-rule="evenodd" clip-rule="evenodd" d="M17.5002 16.0857L20.7477 19.3332L19.3335 20.7475L16.0859 17.4999L17.5002 16.0857Z" fill="#292D32"/>
</svg>
