<svg width="26" height="26" viewBox="0 0 26 26" fill="none" xmlns="http://www.w3.org/2000/svg">
<path d="M13 0C20.18 0 26 5.82004 26 13C26 20.18 20.18 26 13 26C5.82004 26 0 20.18 0 13C0 5.82004 5.82004 0 13 0ZM14.8327 13.1701L11.962 14.7443C11.8376 14.8119 11.7254 14.7215 11.7254 14.5798V11.3481C11.7254 11.2044 11.8412 11.114 11.9661 11.1851L14.8561 12.8426C14.984 12.9152 14.9622 13.1 14.8327 13.1701ZM19.3741 11.3136C19.3741 9.78047 18.1314 8.53836 16.5989 8.53836H9.40113C7.86856 8.53836 6.62594 9.78047 6.62594 11.3136V14.6864C6.62594 16.2195 7.86856 17.4616 9.40113 17.4616H16.5994C18.1314 17.4616 19.3741 16.2195 19.3741 14.6864V11.3136Z" fill="#292D32"/>
</svg>
