<svg width="200" height="80" viewBox="0 0 200 80" fill="none" xmlns="http://www.w3.org/2000/svg">
<path fill-rule="evenodd" clip-rule="evenodd" d="M9.58699 25.5938H0.666992L10.9137 39.9737L0.666992 54.4071H9.58699L19.8403 39.9737L9.58699 25.5938Z" fill="#F28C00"/>
<path d="M20.9203 32.04H25.2003L28.4936 37.4067L31.9003 32.04H35.947L30.567 40.0534L36.4136 48.8334H32.0203L28.3536 43.02L24.6136 48.8334H20.4736L26.3336 40.0334L20.9203 32.04Z" fill="#231F20"/>
<path d="M41.2137 34.8131L40.547 38.5597L40.5937 38.6064C41.0045 38.179 41.5024 37.8448 42.0537 37.6264C42.6215 37.4195 43.2228 37.3201 43.827 37.3331C44.5737 37.3167 45.3143 37.4694 45.9937 37.7797C46.6017 38.0628 47.1443 38.4692 47.587 38.9731C48.0289 39.4938 48.3641 40.0964 48.5737 40.7464C48.8057 41.4451 48.9228 42.1768 48.9203 42.9131C48.9254 43.7266 48.7548 44.5315 48.4203 45.2731C48.103 45.9848 47.6502 46.6279 47.087 47.1664C46.5245 47.697 45.8661 48.1156 45.147 48.3997C44.397 48.6896 43.5976 48.83 42.7937 48.8131C42.0157 48.8166 41.2412 48.7088 40.4937 48.4931C39.7944 48.2913 39.1388 47.9613 38.5603 47.5197C38.002 47.0791 37.5469 46.5216 37.227 45.8864C36.8666 45.1823 36.6748 44.404 36.667 43.6131H40.0003C40.0439 44.2988 40.3465 44.9423 40.847 45.4131C41.3546 45.8679 42.0194 46.107 42.7003 46.0797C43.11 46.0857 43.515 45.9918 43.8803 45.8064C44.2228 45.6482 44.5292 45.4213 44.7803 45.1397C45.0247 44.8397 45.2143 44.4989 45.3403 44.1331C45.4783 43.7527 45.5483 43.351 45.547 42.9464C45.5484 42.5407 45.4831 42.1376 45.3537 41.7531C45.2354 41.3898 45.0449 41.0542 44.7937 40.7664C44.5459 40.4811 44.2387 40.2536 43.8937 40.0997C43.5179 39.9351 43.1104 39.8554 42.7003 39.8664C42.1948 39.8438 41.692 39.9517 41.2403 40.1797C40.8183 40.4346 40.4567 40.7781 40.1803 41.1864H37.2003L38.827 32.0664H48.0003V34.8131H41.2137Z" fill="#231F20"/>
<path d="M59.6533 32.0397C60.329 32.0304 61.0025 32.118 61.6533 32.2997C62.24 32.4523 62.7906 32.7197 63.2733 33.0864C63.7372 33.4408 64.1136 33.897 64.3733 34.4197C64.6646 35.0452 64.8062 35.73 64.7867 36.4197C64.8107 37.4073 64.5239 38.3774 63.9667 39.1931C63.3797 39.9962 62.5013 40.5371 61.52 40.6997V40.7464C61.9878 40.8057 62.4401 40.9527 62.8533 41.1797C63.2038 41.387 63.506 41.6665 63.74 41.9997C63.9708 42.3498 64.1378 42.7381 64.2333 43.1464C64.3377 43.6047 64.4046 44.0706 64.4333 44.5397C64.4333 44.8264 64.4333 45.1664 64.48 45.5797C64.5267 45.9931 64.5267 46.3931 64.5733 46.8131C64.618 47.2139 64.6938 47.6106 64.8 47.9997C64.8741 48.3116 65.0127 48.6045 65.2067 48.8597H63.44C63.3345 48.6819 63.258 48.4883 63.2133 48.2864C63.1583 48.0539 63.1204 47.8177 63.1 47.5797C63.1 47.3331 63.0533 47.0931 63.0333 46.8597C63.0133 46.6264 63.0333 46.4264 62.9867 46.2464C62.9867 45.6531 62.9133 45.0597 62.84 44.4731C62.7767 43.9293 62.6235 43.3999 62.3867 42.9064C62.1669 42.4495 61.8255 42.062 61.4 41.7864C60.8634 41.477 60.2424 41.3463 59.6267 41.4131H53.58V48.8331H52V32.0397H59.6533ZM59.5333 39.9997C60.0047 40.0059 60.4737 39.9315 60.92 39.7797C61.3444 39.6351 61.7362 39.4086 62.0733 39.1131C62.4016 38.8295 62.6692 38.4826 62.86 38.0931C63.0597 37.6634 63.1578 37.1934 63.1467 36.7197C63.1705 36.2733 63.1043 35.8266 62.952 35.4063C62.7996 34.986 62.5643 34.6006 62.26 34.2731C61.8872 33.9516 61.454 33.7077 60.9859 33.5554C60.5177 33.4032 60.0239 33.3457 59.5333 33.3864H53.58V39.9997H59.5333Z" fill="#231F20"/>
<path d="M78.7672 32.04V33.4134H68.7805V39.46H78.1338V40.8334H68.7805V47.46H78.8872V48.8334H67.1738V32.04H78.7672Z" fill="#231F20"/>
<path d="M93.0669 32.04V33.4134H87.2136V48.8334H85.6136V33.4134H79.7803V32.04H93.0669Z" fill="#231F20"/>
<path d="M98.9936 32.04L105.567 48.8334H103.86L101.814 43.6067H94.167L92.167 48.8334H90.4736L97.2003 32.04H98.9936ZM101.274 42.2334L98.0003 33.6267L94.667 42.2334H101.274Z" fill="#231F20"/>
<path d="M108.82 32.0332H107.213V48.8332H108.82V32.0332Z" fill="#231F20"/>
<path d="M113.92 32.04V47.46H123.327V48.8334H112.313V32.04H113.92Z" fill="#231F20"/>
<path d="M132.806 49.4669C131.592 49.492 130.387 49.246 129.28 48.7469C128.293 48.2954 127.418 47.6306 126.72 46.8002C126.024 45.9527 125.503 44.9763 125.186 43.9269C124.835 42.7983 124.659 41.6223 124.666 40.4402C124.659 39.2425 124.846 38.0516 125.22 36.9136C125.57 35.8598 126.117 34.8824 126.833 34.0336C127.534 33.2071 128.408 32.5448 129.393 32.0936C130.469 31.6081 131.639 31.3667 132.82 31.3869C133.725 31.3818 134.625 31.5213 135.486 31.8002C136.277 32.0593 137.014 32.4615 137.66 32.9869C138.286 33.4984 138.809 34.1252 139.2 34.8336C139.615 35.5832 139.895 36.4001 140.026 37.2469L140.08 37.5602H139.06L139.02 37.3336C138.894 36.6301 138.648 35.9535 138.293 35.3336C137.947 34.7385 137.495 34.212 136.96 33.7802C136.412 33.3348 135.785 32.9956 135.113 32.7802C134.364 32.5395 133.58 32.4224 132.793 32.4336C131.752 32.4115 130.719 32.6257 129.773 33.0602C128.912 33.467 128.148 34.0535 127.533 34.7802C126.904 35.5321 126.429 36.3994 126.133 37.3336C125.809 38.3483 125.649 39.4084 125.66 40.4736C125.652 41.5441 125.807 42.6095 126.12 43.6336C126.391 44.5625 126.844 45.4282 127.453 46.1802C128.071 46.9053 128.837 47.4895 129.7 47.8936C130.684 48.3349 131.754 48.5512 132.833 48.5269C133.69 48.5345 134.541 48.3784 135.34 48.0669C136.097 47.7752 136.79 47.3381 137.38 46.7802C137.952 46.2262 138.405 45.5616 138.713 44.8269C139.045 44.0473 139.213 43.2076 139.206 42.3602V41.7536H132.7V40.7536H140.226V49.0936H139.206V45.8936C138.722 46.8294 138.012 47.6293 137.14 48.2202C135.835 49.0757 134.299 49.5108 132.74 49.4669H132.806Z" fill="#231F20"/>
<path d="M141.934 49.0999H141.667V31.7666H148.82C150.62 31.7666 151.974 32.1066 152.867 32.8733C153.331 33.3173 153.694 33.8563 153.931 34.4534C154.168 35.0505 154.274 35.6917 154.24 36.3333V36.4933C154.277 37.5264 153.933 38.537 153.274 39.3333C152.752 39.9362 152.084 40.3952 151.334 40.6666C151.625 40.7456 151.907 40.8574 152.174 40.9999C152.647 41.2354 153.048 41.5948 153.334 42.0399C153.594 42.5017 153.766 43.0082 153.84 43.5333C153.919 44.1456 153.957 44.7625 153.954 45.3799C153.954 45.5999 153.954 45.8933 153.954 46.2466C153.954 46.5933 153.994 46.9133 154.02 47.2799C154.054 47.6199 154.094 47.9466 154.134 48.1999C154.146 48.3668 154.196 48.5286 154.28 48.6733L154.587 49.0999H153.374L153.3 48.9533C153.19 48.7047 153.114 48.4423 153.074 48.1733C153.027 47.8799 152.994 47.5599 152.967 47.2266C152.967 46.8933 152.927 46.5599 152.92 46.2199C152.92 45.8733 152.92 45.5533 152.92 45.2999C152.927 44.6967 152.878 44.0941 152.774 43.4999C152.695 43.0479 152.502 42.6235 152.214 42.2666C151.882 41.9078 151.461 41.6432 150.994 41.4999C150.266 41.2915 149.51 41.1971 148.754 41.2199H142.667V49.0999H141.934ZM148.7 40.2199C149.286 40.2213 149.869 40.1428 150.434 39.9866C150.949 39.8675 151.433 39.6402 151.854 39.3199C152.271 38.9958 152.608 38.5808 152.84 38.1066C153.105 37.5562 153.233 36.9502 153.214 36.3399C153.236 35.862 153.158 35.3846 152.986 34.9382C152.814 34.4918 152.551 34.086 152.214 33.7466C151.587 33.1533 150.507 32.8266 148.94 32.8266H142.667V40.2199H148.7Z" fill="#231F20"/>
<path d="M159.607 48.7464C158.63 48.2767 157.771 47.5932 157.093 46.7464C156.407 45.8888 155.89 44.9094 155.567 43.8597C155.213 42.7406 155.035 41.5734 155.04 40.3997C155.035 39.2238 155.212 38.0543 155.567 36.9331C155.887 35.8804 156.406 34.8985 157.093 34.0397C157.773 33.1955 158.632 32.5125 159.607 32.0397C160.682 31.5343 161.859 31.2834 163.047 31.3064C164.237 31.2814 165.417 31.5324 166.493 32.0397C167.469 32.5125 168.327 33.1955 169.007 34.0397C169.697 34.8953 170.218 35.8752 170.54 36.9264C170.886 38.0516 171.059 39.2226 171.053 40.3997C171.058 41.5724 170.885 42.739 170.54 43.8597C170.218 44.9109 169.697 45.8908 169.007 46.7464C168.33 47.5932 167.471 48.2767 166.493 48.7464C165.415 49.2478 164.236 49.4963 163.047 49.4731C161.86 49.4949 160.684 49.2464 159.607 48.7464ZM158 46.2464C158.592 46.9541 159.335 47.5211 160.173 47.9064C161.087 48.3144 162.08 48.517 163.08 48.4997C164.085 48.5176 165.082 48.3151 166 47.9064C166.839 47.5211 167.581 46.9541 168.173 46.2464C168.789 45.4937 169.257 44.6321 169.553 43.7064C169.89 42.6547 170.064 41.5574 170.067 40.4531C170.065 39.3486 169.892 38.251 169.553 37.1997C169.245 36.2742 168.766 35.4148 168.14 34.6664C167.557 33.9596 166.827 33.3886 166 32.9931C165.083 32.5812 164.085 32.3785 163.08 32.3997C162.079 32.3792 161.086 32.5819 160.173 32.9931C159.335 33.3844 158.593 33.9558 158 34.6664C157.383 35.4211 156.912 36.285 156.613 37.2131C156.282 38.2635 156.111 39.3581 156.107 40.4597C156.111 41.5656 156.282 42.6646 156.613 43.7197C156.914 44.6411 157.384 45.4981 158 46.2464Z" fill="#231F20"/>
<path d="M185.094 31.7666H185.367V42.5666C185.367 44.8599 184.827 46.6133 183.714 47.7599C182.6 48.9066 180.987 49.4733 178.94 49.4733C176.887 49.4733 175.274 48.9133 174.167 47.7599C173.04 46.6133 172.514 44.8599 172.514 42.5666V31.7666H173.534V42.5666C173.534 44.5666 173.98 46.0133 174.867 46.9999C175.727 47.9666 177.067 48.4733 178.96 48.4799C180.86 48.4799 182.2 47.9666 183.06 46.9999C183.92 46.0133 184.394 44.5533 184.394 42.5666V31.7666H185.14H185.094Z" fill="#231F20"/>
<path d="M187.146 49.0998H186.873V31.7665H193.953C195.371 31.681 196.772 32.1147 197.893 32.9865C198.394 33.4526 198.783 34.0253 199.032 34.6624C199.282 35.2994 199.384 35.9843 199.333 36.6665C199.343 37.3825 199.197 38.0921 198.906 38.7465C198.636 39.3395 198.232 39.862 197.726 40.2731C197.201 40.6925 196.599 41.0051 195.953 41.1931C195.228 41.4048 194.475 41.5082 193.72 41.4998H187.9V49.0998H187.146ZM193.953 40.4331C194.545 40.4408 195.134 40.3553 195.7 40.1798C196.207 40.0304 196.677 39.776 197.08 39.4331C197.468 39.114 197.783 38.7135 198 38.2598C198.231 37.7493 198.345 37.1935 198.333 36.6331C198.37 36.1084 198.295 35.5818 198.112 35.0886C197.929 34.5954 197.643 34.1469 197.273 33.7731C196.606 33.1065 195.5 32.7931 193.973 32.7931H187.913V40.4465H193.973L193.953 40.4331Z" fill="#231F20"/>
</svg>
