<svg width="200" height="80" viewBox="0 0 200 80" fill="none" xmlns="http://www.w3.org/2000/svg">
<path fill-rule="evenodd" clip-rule="evenodd" d="M50.0537 31.4465C50.6903 31.1869 51.2908 30.8463 51.8403 30.4332C51.3801 30.2043 50.9628 29.8976 50.607 29.5265C50.1803 29.1065 49.207 27.1865 45.447 27.1865C41.387 27.1865 39.667 29.9932 39.667 32.2132C39.6533 32.5209 39.6712 32.8291 39.7203 33.1332C34.467 35.6132 29.7537 38.4265 24.5137 44.8199H37.887C36.8608 45.1752 35.8993 45.6954 35.0403 46.3599L36.1403 50.2065C37.9157 50.1003 39.6581 49.6805 41.287 48.9665C43.2316 48.1114 44.9673 46.844 46.3739 45.2521C47.7805 43.6601 48.8245 41.7816 49.4337 39.7465C49.607 39.0799 50.407 35.7799 50.507 35.2799C50.66 34.357 51.1492 33.5234 51.8803 32.9399C51.3272 32.4608 50.713 32.0573 50.0537 31.7399C49.7737 31.6399 49.7737 31.5532 50.0537 31.4465Z" fill="#E40520"/>
<path fill-rule="evenodd" clip-rule="evenodd" d="M45.8534 29.4135C45.4481 29.4055 45.0495 29.5186 44.7087 29.7381C44.3678 29.9577 44.1001 30.2738 43.9398 30.6462C43.7794 31.0186 43.7337 31.4303 43.8083 31.8288C43.883 32.2273 44.0748 32.5946 44.3591 32.8836C44.6434 33.1727 45.0074 33.3704 45.4046 33.4517C45.8018 33.533 46.2142 33.494 46.5892 33.3398C46.9642 33.1856 47.2847 32.9232 47.5099 32.586C47.7351 32.2489 47.8547 31.8523 47.8534 31.4468C47.8518 30.9138 47.6416 30.4026 47.2678 30.0226C46.894 29.6425 46.3864 29.4239 45.8534 29.4135Z" fill="#00904A"/>
<path fill-rule="evenodd" clip-rule="evenodd" d="M41.4402 20H22.3736L16.0869 38.3533H26.0002C26.3202 38.1 26.7802 37.6867 27.3736 37.3267L31.7202 23.2867L34.6669 32.9867C35.0469 32.78 36.0336 32.2733 36.4936 32.06C36.7336 28.2267 39.5936 26.06 43.3602 25.64L41.4402 20Z" fill="#E40520"/>
<path fill-rule="evenodd" clip-rule="evenodd" d="M13.6005 45.6602L8.82715 59.5535H20.3805L23.8071 48.6135H16.0005C16.3245 47.5591 16.8127 46.5624 17.4471 45.6602H13.6005Z" fill="#E40520"/>
<path fill-rule="evenodd" clip-rule="evenodd" d="M38.2402 49.9329L41.1536 59.5529H44.1536L40.9669 49.0996C40.0868 49.4641 39.1737 49.7431 38.2402 49.9329Z" fill="#00904A"/>
<path fill-rule="evenodd" clip-rule="evenodd" d="M49.2467 42.5195C47.6751 45.6071 45.1275 48.089 42 49.5795L44.96 59.5795H55.06L49.2467 42.5195Z" fill="#E40520"/>
<path fill-rule="evenodd" clip-rule="evenodd" d="M56.6668 31.3333C55.5183 30.858 54.2896 30.6069 53.0468 30.5933C52.6459 30.614 52.2448 30.555 51.8668 30.4199C51.3172 30.8331 50.7167 31.1737 50.0801 31.4333C49.8001 31.5399 49.8001 31.6266 50.0801 31.7266C50.7394 32.044 51.3537 32.4475 51.9068 32.9266C53.0935 32.0599 54.0935 32.8133 56.6668 31.6266C56.9468 31.5266 56.9468 31.4399 56.6668 31.3333Z" fill="#00904A"/>
<path fill-rule="evenodd" clip-rule="evenodd" d="M12.4997 41.8463C12.5262 41.8463 12.5516 41.8568 12.5704 41.8756C12.5891 41.8943 12.5997 41.9198 12.5997 41.9463C12.5997 41.9746 12.5884 42.0017 12.5684 42.0217C12.5484 42.0417 12.5213 42.053 12.493 42.053C11.7192 42.0198 10.9618 42.2825 10.3749 42.7878C9.78787 43.293 9.41534 44.0029 9.33301 44.773H19.2797C18.4082 45.6301 17.7089 46.6462 17.2197 47.7663H32.4197L35.9063 59.553H38.953L36.1397 50.2196L35.0397 46.373C35.8986 45.7085 36.8601 45.1883 37.8863 44.833H24.513C29.753 38.4263 34.4663 35.613 39.7197 33.133C39.6706 32.8289 39.6527 32.5206 39.6663 32.213C39.6663 29.993 41.3863 27.1863 45.4463 27.1863C46.8368 27.1294 48.2108 27.5044 49.3797 28.2596C47.9493 27.114 46.1787 26.4761 44.3463 26.4463C39.833 26.4463 37.0997 29.3796 37.333 32.6196C34.453 33.953 29.4463 36.6196 26.2797 39.193H9.33301C9.42163 39.9524 9.79499 40.6499 10.3777 41.1448C10.9605 41.6397 11.7093 41.8952 12.473 41.8596L12.4997 41.8463Z" fill="#00904A"/>
<path fill-rule="evenodd" clip-rule="evenodd" d="M45.7669 31.687L47.7668 30.707C47.6586 30.4248 47.4877 30.1708 47.2672 29.9641C47.0467 29.7574 46.7821 29.6034 46.4935 29.5137L45.5802 31.4803C45.4869 31.6937 45.5802 31.787 45.7869 31.687H45.7669Z" fill="white"/>
<path fill-rule="evenodd" clip-rule="evenodd" d="M190.96 51.4066C190.96 55.8666 191.174 59.5533 191.174 59.5533H181.574L181.54 47.22C181.54 43.0333 180.287 41.5266 177.987 41.5266C174.98 41.5266 173.434 43.8 173.434 48.5933V59.5533H164C164.294 52.22 164 41.2 163.78 34.4133H172.3C172.436 35.2955 172.498 36.1874 172.487 37.08V38C173.554 36.6886 174.905 35.6361 176.437 34.9214C177.969 34.2067 179.643 33.8484 181.334 33.8733C185.547 34.08 188.594 36.1066 189.934 38.88C190.687 40.4533 190.914 42.8333 190.96 44.6V51.4066Z" fill="#E40520"/>
<path fill-rule="evenodd" clip-rule="evenodd" d="M72.4069 56.3667C70.9402 57.9867 67.6402 60.2867 63.8602 60.0067C58.5269 59.6134 54.3535 57.2334 54.3535 49.34V34.3867H63.8602V46.72C63.8602 50.9067 65.0069 52.4134 67.3002 52.4134C70.3135 52.4134 71.7602 49.6667 71.7602 45.3467V34.3867H81.0935C80.8002 41.7201 81.0935 52.74 81.3202 59.5267H72.8335C72.3602 58.7534 72.4069 56.34 72.4069 56.34V56.3667Z" fill="#E40520"/>
<path fill-rule="evenodd" clip-rule="evenodd" d="M152.6 56.3931C152.571 57.4521 152.633 58.5116 152.786 59.5598H160.933C160.933 59.5598 160.706 55.2598 160.706 46.8931C160.706 46.7731 160.746 41.6265 160.073 40.1598C159.4 38.6931 158 35.2598 152 34.0665C146 32.8731 139.626 35.1598 138.666 35.8598V42.0531C138.666 42.0531 142.793 39.8131 146 39.8131C148.42 39.8131 151.82 39.9731 152 43.5131C152 43.5131 150.74 43.4665 148.92 43.4665C143.053 43.4665 135.706 44.5865 135.586 51.7265C135.486 57.3131 140.406 59.9132 144.72 59.7931C144.72 59.7931 149.68 60.0531 152.606 56.3931H152.6Z" fill="#E40520"/>
<path fill-rule="evenodd" clip-rule="evenodd" d="M144.567 51.4868C144.373 47.9668 151.233 48.4267 152.066 48.7401C152.106 54.7401 144.78 55.4068 144.567 51.4868Z" fill="white"/>
<path fill-rule="evenodd" clip-rule="evenodd" d="M124.32 47.2399C124.32 43.0466 122.84 41.5866 120.853 41.5866C117.84 41.5866 116.293 43.8132 116.293 48.6132V59.5532H106.96V27.0732H116.367V36.9599C117.94 35.5666 120.767 33.7266 124.207 33.8999C128.413 34.1066 133.8 36.0532 133.8 45.1199V59.5532H124.32V47.2399Z" fill="#E40520"/>
<path fill-rule="evenodd" clip-rule="evenodd" d="M104.147 42.5805C100.754 39.8538 92.5335 40.1338 92.5335 46.6672C92.5335 53.9471 101.44 53.7472 104.807 51.2672L105.047 58.3938C100.267 60.8738 83.0068 61.7271 83.0068 46.8005C83.0068 31.8738 100 32.6672 104.78 35.4938L104.147 42.5805Z" fill="#E40520"/>
</svg>
