<svg width="56" height="27" viewBox="0 0 56 27" fill="none" xmlns="http://www.w3.org/2000/svg">
<path d="M0 21.1397C1.16165 18.1959 9.18069 0 9.18069 0H53.8351L11.433 5.88601L0 21.1397Z" fill="#303030"/>
<path d="M2.1582 27H46.8162L55.9997 5.86621C52.1937 10.9322 48.387 15.9981 44.581 21.064L2.1582 27Z" fill="#303030"/>
<path d="M41.8897 7.81921C42.0101 8.10653 41.9521 8.37695 41.9091 8.57462C41.7822 9.16028 41.4132 9.52917 41.2297 9.707C40.7653 10.1589 40.2816 10.3088 40.1275 10.3507C39.9864 10.3889 39.699 10.4529 39.3521 10.3948C39.1572 10.3617 38.9236 10.3191 38.8398 10.1361C38.771 9.9855 38.8448 9.82971 38.8484 9.8231C38.9465 9.62543 39.1888 9.61294 39.216 9.6122C39.3314 9.60779 39.4166 9.65262 39.575 9.73492C39.7241 9.81208 39.7413 9.85176 39.8767 9.91569C39.9161 9.9348 40.0587 10.0024 40.1799 10.0142C40.5503 10.0509 40.8707 9.57767 40.9423 9.47185C41.0097 9.37265 41.1659 9.13456 41.1989 8.78258C41.2125 8.63708 41.2512 8.21382 40.971 7.88902C40.7832 7.67151 40.5202 7.57672 40.4271 7.56202C40.3669 7.55247 40.3074 7.53703 40.2465 7.53263C40.167 7.52748 40.1283 7.5341 40.1118 7.50985C40.1003 7.49294 40.096 7.454 40.167 7.35186C40.4758 7.32614 41.0291 7.22547 41.4834 6.79632C41.616 6.67067 42.0889 6.22389 41.9621 5.83884C41.8883 5.61618 41.6518 5.5258 41.6375 5.52065C41.4146 5.43909 41.1623 5.52874 41.0283 5.65219C40.9029 5.76756 40.7775 5.88293 40.7309 5.96743C40.7288 5.97111 40.7188 5.98948 40.698 6.0027C40.6363 6.04165 40.5253 6.00638 40.5116 5.95273C40.5059 5.93142 40.5174 5.91085 40.5224 5.9013C40.6722 5.63823 40.852 5.47803 40.852 5.47803C40.9588 5.3825 41.0126 5.334 41.0656 5.29726C41.1795 5.21717 41.4433 5.03125 41.803 5.03272C41.9205 5.03346 42.2939 5.0364 42.5203 5.32445C42.6637 5.50669 42.6759 5.71685 42.6802 5.80356C42.6981 6.19229 42.4731 6.47888 42.4071 6.56265C42.0839 6.97342 41.4791 7.22253 41.4124 7.23649C41.4074 7.23722 41.3795 7.2431 41.378 7.25412C41.3766 7.26956 41.4282 7.28646 41.4368 7.2894C41.5479 7.32246 41.7837 7.56643 41.8897 7.81921Z" fill="#303030"/>
<path d="M20.4619 11.0267C20.3852 10.9186 20.2684 10.7967 20.1014 10.7496C19.9273 10.7004 19.6621 10.7151 19.6542 10.7011C19.6507 10.6953 19.7295 10.4983 19.7352 10.491H21.4401L21.152 15.9177L25.8545 10.491H27.5163L27.4862 10.6879C27.4712 10.6864 26.8205 10.6886 26.5682 10.9201C26.4292 11.048 26.3697 11.1927 26.3461 11.2486C26.0444 11.9695 24.0249 16.402 24.0228 16.4078C24.0171 16.4247 23.9812 16.5306 23.9633 16.6753C23.9497 16.7841 23.9418 16.8399 23.9619 16.8943C24.0149 17.0383 24.2019 17.0876 24.2428 17.0979C24.2435 17.0979 24.7186 17.1008 24.7193 17.1015C24.7208 17.103 24.6649 17.3352 24.6599 17.344C24.6599 17.344 21.8184 17.3448 21.8177 17.344C21.8177 17.3426 21.908 17.1199 21.9087 17.1192C21.9173 17.1125 22.1617 17.1456 22.3702 17.1192C22.4985 17.103 22.5888 17.0523 22.6519 17.017C22.9041 16.8759 23.0274 16.6408 23.1528 16.3924C23.271 16.1595 23.3291 15.9728 23.3291 15.9721C23.5663 15.2123 25.2131 11.8702 25.1629 11.8431C25.1443 11.8335 20.426 17.3433 20.4246 17.344C20.4196 17.3455 20.2017 17.3462 20.1967 17.344C20.1953 17.3433 20.4934 11.8511 20.487 11.8489C20.4819 11.8475 18.5363 16.2183 18.4431 16.4887C18.3872 16.6511 18.355 16.7503 18.3543 16.7635C18.3536 16.7958 18.3571 16.8252 18.3657 16.8539C18.3657 16.8539 18.3844 16.9156 18.4331 16.9685C18.5205 17.064 18.7126 17.1199 18.9097 17.1074C18.9742 17.1037 19.091 17.1059 19.0917 17.1074C19.0924 17.1089 18.9849 17.3418 18.9835 17.344C18.9799 17.3484 16.7598 17.3462 16.7598 17.344C16.7584 17.3389 16.8386 17.1103 16.8422 17.1074C16.8458 17.1045 17.2557 17.1096 17.2779 17.1074C17.4119 17.092 17.5058 17.0376 17.5832 16.9928C17.8655 16.8296 17.9924 16.5313 18.0339 16.4358L20.4619 11.0267Z" fill="#303030"/>
<path d="M26.3826 17.4523C26.6565 17.4523 26.8785 17.2246 26.8785 16.9438C26.8785 16.663 26.6565 16.4353 26.3826 16.4353C26.1087 16.4353 25.8867 16.663 25.8867 16.9438C25.8867 17.2246 26.1087 17.4523 26.3826 17.4523Z" fill="#303030"/>
<path d="M35.5897 17.4523C35.8635 17.4523 36.0856 17.2246 36.0856 16.9438C36.0856 16.663 35.8635 16.4353 35.5897 16.4353C35.3158 16.4353 35.0938 16.663 35.0938 16.9438C35.0938 17.2246 35.3158 17.4523 35.5897 17.4523Z" fill="#303030"/>
<path d="M30.3541 17.3462C30.3541 17.3462 30.4795 17.1015 30.4795 17.1008C30.4781 17.0986 30.0832 17.1192 29.9277 17.0273C29.8095 16.9575 29.7163 16.8414 29.7221 16.7532C29.7328 16.593 31.0707 13.6765 31.0256 13.7463C31.6942 15.1329 32.1514 16.158 32.1822 16.3064C32.2037 16.4101 32.2066 16.5144 32.2066 16.5144C32.208 16.5791 32.2102 16.6459 32.1937 16.7091C32.1485 16.8848 31.978 16.9788 31.9142 17.0134C31.7437 17.1067 31.5788 17.1001 31.505 17.0912C31.485 17.1758 31.4649 17.2603 31.4448 17.3455H34.2812L34.4009 17.1008C34.3945 17.1015 34.1085 17.0993 34.0999 17.0986C33.981 17.0846 33.8706 17.0721 33.7495 17.0038C33.6936 16.9722 33.6004 16.909 33.5159 16.7878C33.2966 16.474 33.1748 16.2513 33.1748 16.2513C32.9426 15.7223 32.6631 15.216 32.4295 14.6876C32.3026 14.4003 32.1077 13.9756 31.8454 13.459C33.6298 12.1833 34.9663 11.267 35.3254 11.0568C35.5497 10.9253 35.774 10.8378 35.774 10.8378C36.0241 10.7401 36.2376 10.6945 36.3716 10.6717L36.4333 10.488H34.2612C34.2576 10.4924 34.1938 10.6894 34.1952 10.6916C34.1981 10.696 34.2784 10.7055 34.3479 10.7305C34.4396 10.7636 34.5299 10.8532 34.5349 10.9458C34.5378 11.0054 34.5055 11.0524 34.441 11.1266C34.3651 11.2141 34.2497 11.3324 34.0849 11.4565L31.0793 13.5427C31.0994 13.492 32.1722 11.1832 32.1815 11.1692C32.251 11.0597 32.36 10.9091 32.5491 10.8055C32.7598 10.6909 32.9734 10.6886 33.1045 10.7004L33.1834 10.488H30.6551C30.5834 10.5792 30.5584 10.6909 30.5634 10.6982C30.5885 10.7371 30.6644 10.7063 30.8034 10.71C30.8995 10.7129 31.06 10.718 31.1481 10.8055C31.2771 10.9333 31.2055 11.1935 31.1954 11.2302C31.1926 11.2368 28.86 16.4835 28.8571 16.4902C28.8342 16.5467 28.7639 16.7246 28.5941 16.8759C28.4414 17.0119 28.2687 17.0721 28.1347 17.1015C28.0244 17.1015 27.914 17.1008 27.8036 17.1008C27.8029 17.1023 27.7012 17.3455 27.7012 17.3455L30.3541 17.3462Z" fill="#303030"/>
</svg>
