<svg width="40" height="40" viewBox="0 0 40 40" fill="none" xmlns="http://www.w3.org/2000/svg">
<path d="M28.3327 25.4085V36.8618C28.3327 37.0092 28.2936 37.154 28.2194 37.2814C28.1452 37.4088 28.0385 37.5143 27.9102 37.587C27.7819 37.6597 27.6367 37.697 27.4892 37.6952C27.3418 37.6935 27.1975 37.6526 27.071 37.5768L19.9993 33.3335L12.9277 37.5768C12.8011 37.6526 12.6566 37.6935 12.509 37.6952C12.3615 37.697 12.2161 37.6595 12.0878 37.5866C11.9594 37.5137 11.8528 37.408 11.7787 37.2804C11.7046 37.1527 11.6657 37.0077 11.666 36.8601V25.4101C9.5096 23.6836 7.94267 21.3299 7.18178 18.6744C6.42089 16.0188 6.50361 13.1924 7.4185 10.5859C8.33339 7.97938 10.0353 5.72137 12.289 4.12392C14.5427 2.52647 17.2369 1.66846 19.9993 1.66846C22.7618 1.66846 25.456 2.52647 27.7097 4.12392C29.9634 5.72137 31.6653 7.97938 32.5802 10.5859C33.4951 13.1924 33.5778 16.0188 32.8169 18.6744C32.056 21.3299 30.4891 23.6836 28.3327 25.4101V25.4085ZM14.9993 27.3635V32.4468L19.9993 29.4468L24.9993 32.4468V27.3635C23.4108 28.006 21.7129 28.3353 19.9993 28.3335C18.2857 28.3353 16.5879 28.006 14.9993 27.3635ZM19.9993 25.0001C22.6515 25.0001 25.1951 23.9466 27.0704 22.0712C28.9458 20.1958 29.9993 17.6523 29.9993 15.0001C29.9993 12.348 28.9458 9.80442 27.0704 7.92905C25.1951 6.05369 22.6515 5.00012 19.9993 5.00012C17.3472 5.00012 14.8036 6.05369 12.9283 7.92905C11.0529 9.80442 9.99935 12.348 9.99935 15.0001C9.99935 17.6523 11.0529 20.1958 12.9283 22.0712C14.8036 23.9466 17.3472 25.0001 19.9993 25.0001Z" fill="#292D32"/>
</svg>
