<svg width="40" height="40" viewBox="0 0 40 40" fill="none" xmlns="http://www.w3.org/2000/svg">
<path d="M20.0007 18.3335C22.2108 18.3335 24.3304 19.2115 25.8932 20.7743C27.456 22.3371 28.334 24.4567 28.334 26.6668V36.6668H25.0007V26.6668C25.0007 25.3915 24.5134 24.1643 23.6385 23.2364C22.7636 22.3085 21.5671 21.75 20.294 21.6752L20.0007 21.6668C18.7253 21.6668 17.4981 22.154 16.5702 23.029C15.6423 23.9039 15.0838 25.1003 15.009 26.3735L15.0007 26.6668V36.6668H11.6673V26.6668C11.6673 24.4567 12.5453 22.3371 14.1081 20.7743C15.6709 19.2115 17.7905 18.3335 20.0007 18.3335ZM9.16732 23.3335C9.63232 23.3335 10.084 23.3885 10.5173 23.4902C10.2324 24.3385 10.0636 25.2215 10.0157 26.1152L10.0007 26.6668V26.8102C9.80907 26.7416 9.60981 26.6968 9.40732 26.6768L9.16732 26.6668C8.54585 26.6669 7.94667 26.8984 7.48662 27.3162C7.02657 27.734 6.73865 28.3082 6.67898 28.9268L6.66732 29.1668V36.6668H3.33398V29.1668C3.33398 27.6197 3.94857 26.136 5.04253 25.042C6.13649 23.9481 7.62022 23.3335 9.16732 23.3335ZM30.834 23.3335C32.3811 23.3335 33.8648 23.9481 34.9588 25.042C36.0527 26.136 36.6673 27.6197 36.6673 29.1668V36.6668H33.334V29.1668C33.334 28.5454 33.1025 27.9462 32.6846 27.4861C32.2668 27.0261 31.6926 26.7382 31.074 26.6785L30.834 26.6668C30.5423 26.6668 30.2623 26.7168 30.0007 26.8085V26.6668C30.0007 25.5568 29.8207 24.4902 29.4857 23.4935C29.9173 23.3885 30.369 23.3335 30.834 23.3335ZM9.16732 13.3335C10.2724 13.3335 11.3322 13.7725 12.1136 14.5539C12.895 15.3353 13.334 16.3951 13.334 17.5002C13.334 18.6052 12.895 19.665 12.1136 20.4464C11.3322 21.2278 10.2724 21.6668 9.16732 21.6668C8.06225 21.6668 7.00244 21.2278 6.22104 20.4464C5.43964 19.665 5.00065 18.6052 5.00065 17.5002C5.00065 16.3951 5.43964 15.3353 6.22104 14.5539C7.00244 13.7725 8.06225 13.3335 9.16732 13.3335ZM30.834 13.3335C31.9391 13.3335 32.9989 13.7725 33.7803 14.5539C34.5617 15.3353 35.0007 16.3951 35.0007 17.5002C35.0007 18.6052 34.5617 19.665 33.7803 20.4464C32.9989 21.2278 31.9391 21.6668 30.834 21.6668C29.7289 21.6668 28.6691 21.2278 27.8877 20.4464C27.1063 19.665 26.6673 18.6052 26.6673 17.5002C26.6673 16.3951 27.1063 15.3353 27.8877 14.5539C28.6691 13.7725 29.7289 13.3335 30.834 13.3335ZM9.16732 16.6668C8.9463 16.6668 8.73434 16.7546 8.57806 16.9109C8.42178 17.0672 8.33398 17.2791 8.33398 17.5002C8.33398 17.7212 8.42178 17.9331 8.57806 18.0894C8.73434 18.2457 8.9463 18.3335 9.16732 18.3335C9.38833 18.3335 9.60029 18.2457 9.75657 18.0894C9.91285 17.9331 10.0007 17.7212 10.0007 17.5002C10.0007 17.2791 9.91285 17.0672 9.75657 16.9109C9.60029 16.7546 9.38833 16.6668 9.16732 16.6668ZM30.834 16.6668C30.613 16.6668 30.401 16.7546 30.2447 16.9109C30.0884 17.0672 30.0007 17.2791 30.0007 17.5002C30.0007 17.7212 30.0884 17.9331 30.2447 18.0894C30.401 18.2457 30.613 18.3335 30.834 18.3335C31.055 18.3335 31.267 18.2457 31.4232 18.0894C31.5795 17.9331 31.6673 17.7212 31.6673 17.5002C31.6673 17.2791 31.5795 17.0672 31.4232 16.9109C31.267 16.7546 31.055 16.6668 30.834 16.6668ZM20.0007 3.3335C21.7688 3.3335 23.4645 4.03588 24.7147 5.28612C25.9649 6.53636 26.6673 8.23205 26.6673 10.0002C26.6673 11.7683 25.9649 13.464 24.7147 14.7142C23.4645 15.9645 21.7688 16.6668 20.0007 16.6668C18.2325 16.6668 16.5368 15.9645 15.2866 14.7142C14.0364 13.464 13.334 11.7683 13.334 10.0002C13.334 8.23205 14.0364 6.53636 15.2866 5.28612C16.5368 4.03588 18.2325 3.3335 20.0007 3.3335ZM20.0007 6.66683C19.1166 6.66683 18.2688 7.01802 17.6436 7.64314C17.0185 8.26826 16.6673 9.11611 16.6673 10.0002C16.6673 10.8842 17.0185 11.7321 17.6436 12.3572C18.2688 12.9823 19.1166 13.3335 20.0007 13.3335C20.8847 13.3335 21.7326 12.9823 22.3577 12.3572C22.9828 11.7321 23.334 10.8842 23.334 10.0002C23.334 9.11611 22.9828 8.26826 22.3577 7.64314C21.7326 7.01802 20.8847 6.66683 20.0007 6.66683Z" fill="#292D32"/>
</svg>
