<svg width="339" height="339" viewBox="0 0 339 339" fill="none" xmlns="http://www.w3.org/2000/svg">
<path d="M222.801 174.973L143.016 174.797L143.072 190.688H162.438C178.039 190.688 190.688 203.336 190.688 218.938C190.688 234.539 178.039 247.188 162.438 247.188H127.125L63.5625 310.75H125.359C126.941 310.75 128.41 310.701 129.957 310.686C152.133 309.895 254.25 300.22 254.25 233.062C254.25 193.145 226.071 176.739 222.801 174.973Z" fill="#1976D2"/>
<path d="M275.437 227.766C275.437 192.453 240.874 172.756 232.321 169.331C229.291 171.428 226.078 173.257 222.801 174.966C226.071 176.739 254.25 193.145 254.25 233.063C254.25 300.22 152.133 309.895 129.957 310.686C268.439 309.309 275.437 249.836 275.437 227.766Z" fill="#1565C0"/>
<path d="M141.25 28.25H63.5625V310.75L127.125 247.188V190.688H141.25C141.25 190.688 187.679 193.329 222.801 174.973C224.206 174.239 225.59 173.483 226.953 172.685C228.783 171.633 230.584 170.538 232.314 169.338C243.148 161.837 252.061 151.702 257.033 138.142C259.723 130.805 261.312 122.513 261.312 113C261.312 28.25 184.508 28.25 141.25 28.25ZM169.5 148.312H141.25C133.446 148.312 127.125 141.992 127.125 134.188V105.938C127.125 98.1334 133.446 91.8125 141.25 91.8125H169.5C185.101 91.8125 197.75 104.461 197.75 120.062C197.75 135.664 185.101 148.312 169.5 148.312Z" fill="#1E88E5"/>
<path d="M188.096 98.9457C193.972 104.123 197.75 111.616 197.75 120.063C197.75 135.664 185.101 148.313 169.5 148.313H141.25C133.446 148.313 127.125 141.992 127.125 134.188V105.938C127.125 105.938 127.167 71.9387 143.877 53.9858C126.08 59.1768 110.698 70.159 99.7578 90.047C70.625 143.016 63.5625 310.75 63.5625 310.75L127.125 261.489V190.688H141.25C197.75 190.688 247.188 162.438 247.188 116.884C247.188 115.677 247.06 114.497 246.99 113.297C246.764 113.191 246.545 113.134 246.305 113C228.557 102.512 193.936 99.4048 188.096 98.9457Z" fill="#1565C0"/>
<path d="M173.031 50.1436C162.847 50.1436 153.044 51.3089 143.877 53.9856C127.167 71.9384 127.125 105.937 127.125 105.937C127.125 98.1332 133.446 91.8123 141.25 91.8123H169.5C176.654 91.8123 183.116 94.5596 188.096 98.9454C193.936 99.4045 228.557 102.512 246.305 113C246.545 113.141 246.757 113.19 246.99 113.296C244.906 78.1181 212.645 50.1436 173.031 50.1436ZM162.437 247.187C146.836 247.187 127.125 247.187 127.125 247.187V261.312C127.125 261.312 131.97 261.312 155.375 261.312C178.78 261.312 190.687 242.342 190.687 218.937C190.687 234.538 178.039 247.187 162.437 247.187Z" fill="#2559AA"/>
</svg>
