<svg width="131" height="63" viewBox="0 0 131 63" fill="none" xmlns="http://www.w3.org/2000/svg">
<path d="M0 48.8413C2.71743 42.0401 21.4763 0 21.4763 0H125.936L26.7452 13.5991L0 48.8413Z" fill="#FF0000"/>
<path d="M5.04932 62.3809H109.517L131 13.5532C122.097 25.2576 113.192 36.962 104.288 48.6664L5.04932 62.3809Z" fill="#0000FF"/>
<path d="M97.9916 18.0659C98.2733 18.7297 98.1375 19.3545 98.0369 19.8112C97.7402 21.1643 96.8768 22.0166 96.4477 22.4274C95.3614 23.4716 94.2298 23.8179 93.8694 23.9147C93.5391 24.003 92.8669 24.1507 92.0555 24.0165C91.5996 23.9401 91.0531 23.8417 90.8569 23.4189C90.696 23.0709 90.8686 22.711 90.877 22.6957C91.1067 22.239 91.6733 22.2101 91.737 22.2084C92.0069 22.1982 92.2064 22.3018 92.5769 22.4919C92.9256 22.6702 92.9658 22.7619 93.2827 22.9096C93.3749 22.9537 93.7085 23.1099 93.9918 23.1371C94.8585 23.222 95.6078 22.1286 95.7755 21.8841C95.933 21.6549 96.2985 21.1049 96.3756 20.2916C96.4074 19.9555 96.498 18.9776 95.8425 18.2272C95.4033 17.7246 94.7881 17.5056 94.5701 17.4717C94.4293 17.4496 94.2902 17.4139 94.1477 17.4037C93.9616 17.3919 93.8711 17.4071 93.8325 17.3511C93.8057 17.3121 93.7956 17.2221 93.9616 16.9861C94.6841 16.9267 95.9783 16.6941 97.0411 15.7026C97.3513 15.4123 98.4577 14.38 98.161 13.4904C97.9883 12.976 97.4351 12.7671 97.4015 12.7553C96.8802 12.5668 96.2901 12.7739 95.9766 13.0592C95.6832 13.3257 95.3899 13.5923 95.2809 13.7875C95.2759 13.796 95.2524 13.8384 95.2038 13.869C95.0596 13.959 94.7998 13.8775 94.7679 13.7536C94.7545 13.7043 94.7813 13.6568 94.7931 13.6347C95.1434 13.0269 95.5642 12.6568 95.5642 12.6568C95.814 12.4361 95.9397 12.324 96.0638 12.2391C96.3303 12.0541 96.9472 11.6246 97.7888 11.6279C98.0637 11.6296 98.9371 11.6364 99.4669 12.302C99.8021 12.723 99.8306 13.2086 99.8407 13.4089C99.8826 14.307 99.3562 14.9692 99.202 15.1627C98.4459 16.1117 97.0311 16.6873 96.8752 16.7195C96.8634 16.7212 96.798 16.7348 96.7947 16.7603C96.7913 16.7959 96.912 16.835 96.9322 16.8418C97.192 16.9182 97.7435 17.4818 97.9916 18.0659Z" fill="#292D32"/>
<path d="M47.8678 25.4767C47.6884 25.2271 47.4152 24.9453 47.0246 24.8366C46.6172 24.7229 45.997 24.7568 45.9785 24.7246C45.9701 24.711 46.1545 24.256 46.1679 24.239H50.1561L49.4822 36.777L60.4827 24.239H64.3702L64.2998 24.694C64.2646 24.6906 62.7424 24.6957 62.1523 25.2305C61.8271 25.5259 61.688 25.8604 61.6327 25.9894C60.9269 27.6549 56.2028 37.8958 56.1978 37.9094C56.1844 37.9485 56.1006 38.1929 56.0587 38.5274C56.0268 38.7787 56.0084 38.9077 56.0553 39.0333C56.1794 39.3661 56.6169 39.4798 56.7125 39.5036C56.7141 39.5036 57.8256 39.5104 57.8273 39.5121C57.8306 39.5155 57.6999 40.052 57.6881 40.0724C57.6881 40.0724 51.0412 40.0741 51.0395 40.0724C51.0395 40.069 51.2508 39.5546 51.2524 39.5529C51.2726 39.5376 51.8442 39.614 52.332 39.5529C52.6321 39.5155 52.8433 39.3984 52.9909 39.3169C53.581 38.9909 53.8693 38.4476 54.1627 37.8738C54.4393 37.3356 54.5751 36.9043 54.5751 36.9026C55.1299 35.1472 58.9823 27.4257 58.8649 27.3629C58.8214 27.3408 47.784 40.0707 47.7806 40.0724C47.7689 40.0758 47.2593 40.0775 47.2475 40.0724C47.2442 40.0707 47.9416 27.3816 47.9265 27.3765C47.9147 27.3731 43.3633 37.4714 43.1454 38.0962C43.0147 38.4714 42.9392 38.7006 42.9375 38.7311C42.9359 38.8058 42.9442 38.8737 42.9644 38.94C42.9644 38.94 43.0079 39.0826 43.1219 39.2048C43.3265 39.4255 43.7757 39.5546 44.2367 39.5257C44.3876 39.5172 44.6609 39.5223 44.6625 39.5257C44.6642 39.5291 44.4128 40.0673 44.4094 40.0724C44.401 40.0826 39.2076 40.0775 39.2076 40.0724C39.2042 40.0605 39.392 39.5325 39.4003 39.5257C39.4087 39.5189 40.3676 39.5308 40.4196 39.5257C40.7331 39.49 40.9527 39.3644 41.1337 39.2608C41.7942 38.8839 42.091 38.1946 42.1882 37.9739L47.8678 25.4767Z" fill="#292D32"/>
<path d="M61.7148 40.3219C62.3554 40.3219 62.8748 39.7959 62.8748 39.147C62.8748 38.4982 62.3554 37.9722 61.7148 37.9722C61.0741 37.9722 60.5547 38.4982 60.5547 39.147C60.5547 39.7959 61.0741 40.3219 61.7148 40.3219Z" fill="#292D32"/>
<path d="M83.2528 40.3219C83.8935 40.3219 84.4129 39.7959 84.4129 39.147C84.4129 38.4982 83.8935 37.9722 83.2528 37.9722C82.6122 37.9722 82.0928 38.4982 82.0928 39.147C82.0928 39.7959 82.6122 40.3219 83.2528 40.3219Z" fill="#292D32"/>
<path d="M71.0082 40.0774C71.0082 40.0774 71.3016 39.5121 71.3016 39.5104C71.2983 39.5053 70.3746 39.5528 70.0108 39.3406C69.7342 39.1793 69.5163 38.911 69.5297 38.7073C69.5548 38.3372 72.6846 31.5988 72.579 31.7601C74.1431 34.9637 75.2126 37.3321 75.2847 37.6751C75.335 37.9145 75.3417 38.1555 75.3417 38.1555C75.3451 38.3049 75.3501 38.4594 75.3115 38.6055C75.2059 39.0112 74.807 39.2285 74.6578 39.3083C74.2588 39.5239 73.8732 39.5087 73.7005 39.4883C73.6536 39.6835 73.6067 39.8788 73.5597 40.0757H80.1949L80.4748 39.5104C80.4598 39.5121 79.7909 39.507 79.7708 39.5053C79.4925 39.473 79.2343 39.4441 78.951 39.2863C78.8202 39.2133 78.6023 39.0672 78.4045 38.7871C77.8915 38.0622 77.6065 37.5477 77.6065 37.5477C77.0634 36.3254 76.4096 35.1556 75.8631 33.9349C75.5664 33.2711 75.1104 32.2898 74.4968 31.0962C78.671 28.1489 81.7975 26.0318 82.6374 25.5462C83.1621 25.2423 83.6868 25.0403 83.6868 25.0403C84.2719 24.8145 84.7714 24.7092 85.0849 24.6566L85.2291 24.2322H80.1479C80.1396 24.2424 79.9904 24.6974 79.9937 24.7025C80.0004 24.7126 80.1882 24.7347 80.3508 24.7924C80.5654 24.8688 80.7766 25.076 80.7883 25.2899C80.795 25.4274 80.7196 25.5361 80.5687 25.7075C80.391 25.9096 80.1211 26.1829 79.7355 26.4698L72.7048 31.2898C72.7517 31.1726 75.2613 25.8383 75.283 25.806C75.4457 25.553 75.7005 25.205 76.143 24.9656C76.6359 24.7008 77.1355 24.6957 77.4422 24.7228L77.6266 24.2322H71.7123C71.5447 24.4427 71.486 24.7008 71.4978 24.7177C71.5564 24.8077 71.7341 24.7364 72.0593 24.7449C72.284 24.7517 72.6595 24.7636 72.8657 24.9656C73.1674 25.261 72.9998 25.862 72.9763 25.9469C72.9696 25.9622 67.513 38.0842 67.5063 38.0995C67.4526 38.2302 67.2883 38.6411 66.891 38.9908C66.534 39.3049 66.1299 39.4441 65.8165 39.5121C65.5583 39.5121 65.3001 39.5104 65.042 39.5104C65.0403 39.5138 64.8022 40.0757 64.8022 40.0757L71.0082 40.0774Z" fill="#292D32"/>
</svg>
