<svg width="40" height="40" viewBox="0 0 40 40" fill="none" xmlns="http://www.w3.org/2000/svg">
<path d="M1.66602 36.6666C1.66602 33.1304 3.07077 29.739 5.57126 27.2385C8.07174 24.7381 11.4631 23.3333 14.9993 23.3333C18.5356 23.3333 21.927 24.7381 24.4274 27.2385C26.9279 29.739 28.3327 33.1304 28.3327 36.6666H24.9993C24.9993 34.0145 23.9458 31.4709 22.0704 29.5956C20.1951 27.7202 17.6515 26.6666 14.9993 26.6666C12.3472 26.6666 9.80365 27.7202 7.92828 29.5956C6.05292 31.4709 4.99935 34.0145 4.99935 36.6666H1.66602ZM14.9993 21.6666C9.47435 21.6666 4.99935 17.1916 4.99935 11.6666C4.99935 6.14164 9.47435 1.66664 14.9993 1.66664C20.5243 1.66664 24.9993 6.14164 24.9993 11.6666C24.9993 17.1916 20.5243 21.6666 14.9993 21.6666ZM14.9993 18.3333C18.6827 18.3333 21.666 15.35 21.666 11.6666C21.666 7.98331 18.6827 4.99997 14.9993 4.99997C11.316 4.99997 8.33268 7.98331 8.33268 11.6666C8.33268 15.35 11.316 18.3333 14.9993 18.3333ZM35.9127 1.30664C37.5097 4.52635 38.3381 8.07263 38.3327 11.6666C38.3327 15.3883 37.461 18.9066 35.9127 22.0266L33.171 20.0333C34.3797 17.4099 35.0035 14.5551 34.9993 11.6666C34.9993 8.67997 34.3443 5.84497 33.171 3.29997L35.9127 1.30664ZM30.4093 5.30664C31.2417 7.32357 31.6688 9.48469 31.666 11.6666C31.6688 13.8486 31.2417 16.0097 30.4093 18.0266L27.6143 15.9933C28.0913 14.6007 28.334 13.1387 28.3327 11.6666C28.3346 10.1947 28.0924 8.73268 27.616 7.33997L30.4093 5.30664Z" fill="#292D32"/>
</svg>
